<svg width="1048" height="398" viewBox="0 0 1048 398" fill="none" xmlns="http://www.w3.org/2000/svg">
<g clip-path="url(#clip0)">
<path d="M29.3198 395.474C29.3233 390.924 31.1333 386.561 34.3521 383.345C37.5708 380.129 41.9349 378.322 46.4852 378.322C51.0355 378.322 55.3995 380.129 58.6183 383.345C61.837 386.561 63.6471 390.924 63.6505 395.474" fill="#F2F2F2"/>
<path d="M46.4852 395.474C46.3621 395.474 46.2441 395.425 46.1572 395.338C46.0702 395.251 46.0213 395.133 46.0212 395.01V385.964C46.0212 385.841 46.0701 385.723 46.1571 385.636C46.2441 385.549 46.3621 385.5 46.4852 385.5C46.6082 385.5 46.7262 385.549 46.8132 385.636C46.9002 385.723 46.9491 385.841 46.9491 385.964V395.01C46.9491 395.133 46.9002 395.251 46.8132 395.338C46.7262 395.425 46.6082 395.474 46.4852 395.474V395.474Z" fill="#CCCCCC"/>
<path d="M46.485 392.366C46.3742 392.366 46.267 392.326 46.183 392.254L40.616 387.476C40.5691 387.436 40.5305 387.388 40.5025 387.333C40.4745 387.279 40.4575 387.219 40.4526 387.158C40.4476 387.097 40.4548 387.036 40.4738 386.977C40.4927 386.919 40.523 386.865 40.563 386.819C40.6029 386.772 40.6516 386.734 40.7063 386.707C40.761 386.679 40.8207 386.663 40.8818 386.658C40.9429 386.654 41.0043 386.662 41.0624 386.681C41.1205 386.7 41.1741 386.731 41.2203 386.772L46.7874 391.55C46.8594 391.611 46.9106 391.694 46.9344 391.786C46.9582 391.877 46.9532 391.974 46.9203 392.063C46.8874 392.152 46.828 392.229 46.7502 392.283C46.6723 392.337 46.5798 392.366 46.485 392.366L46.485 392.366Z" fill="#CCCCCC"/>
<path d="M82.2078 395.474C82.2112 390.924 84.0213 386.561 87.24 383.345C90.4588 380.129 94.8228 378.322 99.3731 378.322C103.923 378.322 108.287 380.129 111.506 383.345C114.725 386.561 116.535 390.924 116.538 395.474" fill="#F2F2F2"/>
<path d="M99.3731 395.474C99.2501 395.474 99.1321 395.425 99.0451 395.338C98.9581 395.251 98.9092 395.133 98.9092 395.01V385.964C98.9092 385.841 98.9581 385.723 99.0451 385.636C99.1321 385.549 99.2501 385.5 99.3731 385.5C99.4961 385.5 99.6142 385.549 99.7012 385.636C99.7882 385.723 99.837 385.841 99.837 385.964V395.01C99.837 395.133 99.7881 395.251 99.7011 395.338C99.6141 395.425 99.4961 395.474 99.3731 395.474V395.474Z" fill="#CCCCCC"/>
<path d="M99.3728 392.366C99.262 392.366 99.1548 392.326 99.0708 392.254L93.5037 387.476C93.4568 387.436 93.4182 387.388 93.3901 387.333C93.362 387.279 93.345 387.219 93.34 387.158C93.3351 387.097 93.3423 387.036 93.3612 386.977C93.3802 386.919 93.4105 386.865 93.4504 386.818C93.4904 386.772 93.5391 386.734 93.5939 386.706C93.6486 386.679 93.7083 386.662 93.7695 386.658C93.8306 386.654 93.892 386.661 93.9502 386.681C94.0083 386.7 94.0619 386.731 94.1081 386.772L99.6752 391.55C99.7471 391.611 99.7985 391.694 99.8222 391.786C99.846 391.877 99.841 391.974 99.8081 392.063C99.7752 392.152 99.7158 392.229 99.6379 392.283C99.5601 392.337 99.4676 392.366 99.3728 392.366L99.3728 392.366Z" fill="#CCCCCC"/>
<path d="M784.795 67.3088C803.021 67.3088 817.795 52.5342 817.795 34.3088C817.795 16.0834 803.021 1.30884 784.795 1.30884C766.57 1.30884 751.795 16.0834 751.795 34.3088C751.795 52.5342 766.57 67.3088 784.795 67.3088Z" fill="#F2F2F2"/>
<path d="M93.481 137.962C101.349 113.394 120.561 94.3398 143.345 83.0072C170.378 69.5612 201.442 68.0388 230.794 73.272C262.48 78.9212 292.094 91.9444 320.76 106.156C348.877 120.096 376.54 134.816 405.78 146.336C464.157 169.302 526.031 182.118 588.727 184.232C645.158 186.114 705.494 179.931 753.812 148.214C798.084 119.152 826.256 71.208 840.929 21.2319C842.807 14.8338 844.477 8.38069 845.938 1.87257C846.365 -0.00734651 843.473 -0.810002 843.045 1.07506C831.21 53.2627 805.971 104.842 762.848 138.109C716.207 174.089 654.994 182.407 597.711 181.455C534.329 180.348 471.621 168.247 412.379 145.691C382.386 134.273 354.083 119.446 325.42 105.131C297.385 91.1313 268.564 78.0261 237.737 71.5693C209.587 65.6733 179.449 65.314 152.309 75.8057C129.961 84.4448 109.584 99.8434 97.6594 120.908C94.7518 126.071 92.3823 131.518 90.5882 137.165C89.998 139.008 92.8935 139.797 93.481 137.962V137.962Z" fill="#F2F2F2"/>
<path d="M521.783 367.679C522.049 367.679 522.303 367.574 522.491 367.386C522.678 367.199 522.783 366.944 522.783 366.679C522.783 366.414 522.678 366.159 522.491 365.972C522.303 365.784 522.049 365.679 521.783 365.679H512.283V361.679H521.783C522.049 361.679 522.303 361.574 522.491 361.386C522.678 361.199 522.783 360.944 522.783 360.679C522.783 360.414 522.678 360.159 522.491 359.972C522.303 359.784 522.049 359.679 521.783 359.679H440.783C440.518 359.679 440.264 359.784 440.076 359.972C439.889 360.159 439.783 360.414 439.783 360.679C439.783 360.944 439.889 361.199 440.076 361.386C440.264 361.574 440.518 361.679 440.783 361.679H450.283V365.679H440.783C440.518 365.679 440.264 365.784 440.076 365.972C439.889 366.159 439.783 366.414 439.783 366.679C439.783 366.944 439.889 367.199 440.076 367.386C440.264 367.574 440.518 367.679 440.783 367.679H450.283V371.679H440.783C440.518 371.679 440.264 371.784 440.076 371.972C439.889 372.159 439.783 372.414 439.783 372.679C439.783 372.944 439.889 373.199 440.076 373.386C440.264 373.574 440.518 373.679 440.783 373.679H450.283V377.679H441.783C441.253 377.679 440.744 377.89 440.369 378.265C439.994 378.64 439.783 379.149 439.783 379.679C439.783 380.209 439.994 380.718 440.369 381.093C440.744 381.468 441.253 381.679 441.783 381.679H449.875C449.816 381.839 449.785 382.008 449.783 382.179V396.179C449.783 396.577 449.942 396.958 450.223 397.24C450.504 397.521 450.886 397.679 451.283 397.679C451.681 397.679 452.063 397.521 452.344 397.24C452.625 396.958 452.783 396.577 452.783 396.179V382.179C452.782 382.008 452.751 381.839 452.692 381.679H509.875C509.816 381.839 509.785 382.008 509.783 382.179V396.179C509.783 396.577 509.942 396.958 510.223 397.24C510.504 397.521 510.886 397.679 511.283 397.679C511.681 397.679 512.063 397.521 512.344 397.24C512.625 396.958 512.783 396.577 512.783 396.179V382.179C512.782 382.008 512.751 381.839 512.692 381.679H520.783C521.314 381.679 521.823 381.468 522.198 381.093C522.573 380.718 522.783 380.209 522.783 379.679C522.783 379.149 522.573 378.64 522.198 378.265C521.823 377.89 521.314 377.679 520.783 377.679H512.283V373.679H521.783C522.049 373.679 522.303 373.574 522.491 373.386C522.678 373.199 522.783 372.944 522.783 372.679C522.783 372.414 522.678 372.159 522.491 371.972C522.303 371.784 522.049 371.679 521.783 371.679H512.283V367.679H521.783ZM452.283 361.679H510.283V365.679H452.283V361.679ZM510.283 377.679H452.283V373.679H510.283V377.679ZM510.283 371.679H452.283V367.679H510.283V371.679Z" fill="#3F3D56"/>
<path d="M216.795 325.707C216.795 308.046 202.468 266.137 184.795 266.137C167.122 266.137 152.795 308.046 152.795 325.707C152.795 334.194 156.167 342.334 162.168 348.335C168.169 354.336 176.308 357.707 184.795 357.707C193.282 357.707 201.422 354.336 207.423 348.335C213.424 342.334 216.795 334.194 216.795 325.707H216.795Z" fill="#E6E6E6"/>
<path d="M208.795 325.707C208.795 308.046 194.468 266.137 176.795 266.137C159.122 266.137 144.795 308.046 144.795 325.707C144.795 334.194 148.167 342.334 154.168 348.335C160.169 354.336 168.308 357.707 176.795 357.707C185.282 357.707 193.422 354.336 199.423 348.335C205.424 342.334 208.795 334.194 208.795 325.707H208.795Z" fill="#F2F2F2"/>
<path d="M177.795 397.258C177.53 397.258 177.276 397.152 177.088 396.965C176.901 396.777 176.795 396.523 176.795 396.258V307.117C176.795 306.852 176.901 306.598 177.088 306.41C177.276 306.223 177.53 306.117 177.795 306.117C178.061 306.117 178.315 306.223 178.502 306.41C178.69 306.598 178.795 306.852 178.795 307.117V396.258C178.795 396.523 178.69 396.777 178.502 396.965C178.315 397.152 178.061 397.258 177.795 397.258Z" fill="#CCCCCC"/>
<path d="M177.795 321.73C177.598 321.73 177.404 321.672 177.24 321.562C177.075 321.452 176.947 321.296 176.872 321.113C176.796 320.93 176.776 320.729 176.815 320.535C176.853 320.341 176.949 320.163 177.088 320.023L190.166 306.945C190.353 306.758 190.608 306.652 190.873 306.652C191.138 306.652 191.393 306.758 191.58 306.945C191.768 307.133 191.873 307.387 191.873 307.652C191.873 307.917 191.768 308.172 191.58 308.359L178.502 321.437C178.41 321.53 178.299 321.604 178.178 321.654C178.057 321.705 177.927 321.731 177.795 321.73V321.73Z" fill="#CCCCCC"/>
<path d="M545.795 397.258C545.53 397.258 545.276 397.152 545.088 396.965C544.901 396.777 544.795 396.523 544.795 396.258V307.117C544.795 306.852 544.901 306.598 545.088 306.41C545.276 306.223 545.53 306.117 545.795 306.117C546.061 306.117 546.315 306.223 546.503 306.41C546.69 306.598 546.795 306.852 546.795 307.117V396.258C546.795 396.523 546.69 396.777 546.503 396.965C546.315 397.152 546.061 397.258 545.795 397.258Z" fill="#3F3D56"/>
<path d="M652.795 325.707C652.795 308.046 638.469 266.137 620.795 266.137C603.122 266.137 588.795 308.046 588.795 325.707C588.795 334.194 592.167 342.334 598.168 348.335C604.169 354.336 612.309 357.707 620.795 357.707C629.282 357.707 637.422 354.336 643.423 348.335C649.424 342.334 652.796 334.194 652.796 325.707H652.795Z" fill="#E6E6E6"/>
<path d="M644.795 325.707C644.795 308.046 630.469 266.137 612.795 266.137C595.122 266.137 580.795 308.046 580.795 325.707C580.795 334.194 584.167 342.334 590.168 348.335C596.169 354.336 604.309 357.707 612.795 357.707C621.282 357.707 629.422 354.336 635.423 348.335C641.424 342.334 644.796 334.194 644.796 325.707H644.795Z" fill="#F2F2F2"/>
<path d="M613.795 397.258C613.53 397.258 613.276 397.152 613.088 396.965C612.901 396.777 612.795 396.523 612.795 396.258V307.117C612.795 306.852 612.901 306.598 613.088 306.41C613.276 306.223 613.53 306.117 613.795 306.117C614.061 306.117 614.315 306.223 614.503 306.41C614.69 306.598 614.795 306.852 614.795 307.117V396.258C614.795 396.523 614.69 396.777 614.503 396.965C614.315 397.152 614.061 397.258 613.795 397.258Z" fill="#CCCCCC"/>
<path d="M613.795 321.73C613.597 321.73 613.404 321.672 613.24 321.562C613.075 321.452 612.947 321.296 612.872 321.113C612.796 320.93 612.776 320.729 612.815 320.535C612.853 320.341 612.948 320.163 613.088 320.023L626.166 306.945C626.353 306.758 626.608 306.652 626.873 306.652C627.138 306.652 627.392 306.758 627.58 306.945C627.767 307.133 627.873 307.387 627.873 307.652C627.873 307.917 627.767 308.172 627.58 308.359L614.502 321.437C614.41 321.53 614.299 321.604 614.178 321.654C614.057 321.705 613.927 321.731 613.795 321.73Z" fill="#CCCCCC"/>
<path d="M283.795 51.8088H267.795C266.602 51.8075 265.459 51.333 264.615 50.4893C263.771 49.6457 263.297 48.5019 263.295 47.3088V10.3088C263.297 9.11577 263.771 7.97195 264.615 7.12833C265.459 6.2847 266.602 5.81016 267.795 5.80884H283.795C284.988 5.81016 286.132 6.2847 286.976 7.12833C287.82 7.97195 288.294 9.11577 288.295 10.3088V47.3088C288.294 48.5019 287.82 49.6457 286.976 50.4893C286.132 51.333 284.988 51.8075 283.795 51.8088V51.8088Z" fill="#E6E6E6"/>
<path d="M346.795 396.809H264.795C262.542 396.806 260.381 395.91 258.788 394.316C257.194 392.723 256.298 390.562 256.295 388.309V57.3088C256.298 55.0553 257.194 52.8947 258.788 51.3012C260.381 49.7077 262.542 48.8114 264.795 48.8088H346.795C349.049 48.8114 351.21 49.7077 352.803 51.3012C354.397 52.8947 355.293 55.0553 355.295 57.3088V388.309C355.293 390.562 354.397 392.723 352.803 394.316C351.21 395.91 349.049 396.806 346.795 396.809V396.809Z" fill="#E6E6E6"/>
<path d="M297.795 396.809H215.795C213.542 396.806 211.381 395.91 209.788 394.316C208.194 392.723 207.298 390.562 207.295 388.309V57.3088C207.298 55.0553 208.194 52.8947 209.788 51.3012C211.381 49.7077 213.542 48.8114 215.795 48.8088H297.795C300.049 48.8114 302.209 49.7077 303.803 51.3012C305.396 52.8947 306.293 55.0553 306.295 57.3088V388.309C306.293 390.562 305.396 392.723 303.803 394.316C302.209 395.91 300.049 396.806 297.795 396.809V396.809Z" fill="#F2F2F2"/>
<path d="M268.795 51.8088H252.795C251.602 51.8075 250.459 51.333 249.615 50.4893C248.771 49.6457 248.297 48.5019 248.295 47.3088V10.3088C248.297 9.11577 248.771 7.97195 249.615 7.12833C250.459 6.2847 251.602 5.81016 252.795 5.80884H268.795C269.988 5.81016 271.132 6.2847 271.976 7.12833C272.82 7.97195 273.294 9.11577 273.295 10.3088V47.3088C273.294 48.5019 272.82 49.6457 271.976 50.4893C271.132 51.333 269.988 51.8075 268.795 51.8088V51.8088Z" fill="#F2F2F2"/>
<path d="M247.795 123.809H228.795C228.132 123.808 227.497 123.544 227.028 123.076C226.56 122.607 226.296 121.972 226.295 121.309V92.3088C226.296 91.646 226.56 91.0106 227.028 90.5419C227.497 90.0732 228.132 89.8096 228.795 89.8088H247.795C248.458 89.8096 249.094 90.0732 249.562 90.5419C250.031 91.0106 250.295 91.646 250.295 92.3088V121.309C250.295 121.972 250.031 122.607 249.562 123.076C249.094 123.544 248.458 123.808 247.795 123.809V123.809Z" fill="white"/>
<path d="M284.795 123.809H265.795C265.133 123.808 264.497 123.544 264.028 123.076C263.56 122.607 263.296 121.972 263.295 121.309V92.3088C263.296 91.646 263.56 91.0106 264.028 90.5419C264.497 90.0732 265.133 89.8096 265.795 89.8088H284.795C285.458 89.8096 286.094 90.0732 286.562 90.5419C287.031 91.0106 287.295 91.646 287.295 92.3088V121.309C287.295 121.972 287.031 122.607 286.562 123.076C286.094 123.544 285.458 123.808 284.795 123.809V123.809Z" fill="white"/>
<path d="M247.795 176.809H228.795C228.132 176.808 227.497 176.544 227.028 176.076C226.56 175.607 226.296 174.972 226.295 174.309V145.309C226.296 144.646 226.56 144.011 227.028 143.542C227.497 143.073 228.132 142.81 228.795 142.809H247.795C248.458 142.81 249.094 143.073 249.562 143.542C250.031 144.011 250.295 144.646 250.295 145.309V174.309C250.295 174.972 250.031 175.607 249.562 176.076C249.094 176.544 248.458 176.808 247.795 176.809V176.809Z" fill="white"/>
<path d="M284.795 176.809H265.795C265.133 176.808 264.497 176.544 264.028 176.076C263.56 175.607 263.296 174.972 263.295 174.309V145.309C263.296 144.646 263.56 144.011 264.028 143.542C264.497 143.073 265.133 142.81 265.795 142.809H284.795C285.458 142.81 286.094 143.073 286.562 143.542C287.031 144.011 287.295 144.646 287.295 145.309V174.309C287.295 174.972 287.031 175.607 286.562 176.076C286.094 176.544 285.458 176.808 284.795 176.809V176.809Z" fill="white"/>
<path d="M247.795 229.809H228.795C228.132 229.808 227.497 229.544 227.028 229.076C226.56 228.607 226.296 227.972 226.295 227.309V198.309C226.296 197.646 226.56 197.011 227.028 196.542C227.497 196.073 228.132 195.81 228.795 195.809H247.795C248.458 195.81 249.094 196.073 249.562 196.542C250.031 197.011 250.295 197.646 250.295 198.309V227.309C250.295 227.972 250.031 228.607 249.562 229.076C249.094 229.544 248.458 229.808 247.795 229.809V229.809Z" fill="white"/>
<path d="M284.795 229.809H265.795C265.133 229.808 264.497 229.544 264.028 229.076C263.56 228.607 263.296 227.972 263.295 227.309V198.309C263.296 197.646 263.56 197.011 264.028 196.542C264.497 196.073 265.133 195.81 265.795 195.809H284.795C285.458 195.81 286.094 196.073 286.562 196.542C287.031 197.011 287.295 197.646 287.295 198.309V227.309C287.295 227.972 287.031 228.607 286.562 229.076C286.094 229.544 285.458 229.808 284.795 229.809V229.809Z" fill="white"/>
<path d="M247.795 282.809H228.795C228.132 282.808 227.497 282.544 227.028 282.076C226.56 281.607 226.296 280.972 226.295 280.309V251.309C226.296 250.646 226.56 250.011 227.028 249.542C227.497 249.073 228.132 248.81 228.795 248.809H247.795C248.458 248.81 249.094 249.073 249.562 249.542C250.031 250.011 250.295 250.646 250.295 251.309V280.309C250.295 280.972 250.031 281.607 249.562 282.076C249.094 282.544 248.458 282.808 247.795 282.809V282.809Z" fill="white"/>
<path d="M284.795 282.809H265.795C265.133 282.808 264.497 282.544 264.028 282.076C263.56 281.607 263.296 280.972 263.295 280.309V251.309C263.296 250.646 263.56 250.011 264.028 249.542C264.497 249.073 265.133 248.81 265.795 248.809H284.795C285.458 248.81 286.094 249.073 286.562 249.542C287.031 250.011 287.295 250.646 287.295 251.309V280.309C287.295 280.972 287.031 281.607 286.562 282.076C286.094 282.544 285.458 282.808 284.795 282.809V282.809Z" fill="white"/>
<path d="M247.795 335.809H228.795C228.132 335.808 227.497 335.544 227.028 335.076C226.56 334.607 226.296 333.972 226.295 333.309V304.309C226.296 303.646 226.56 303.011 227.028 302.542C227.497 302.073 228.132 301.81 228.795 301.809H247.795C248.458 301.81 249.094 302.073 249.562 302.542C250.031 303.011 250.295 303.646 250.295 304.309V333.309C250.295 333.972 250.031 334.607 249.562 335.076C249.094 335.544 248.458 335.808 247.795 335.809V335.809Z" fill="white"/>
<path d="M284.795 335.809H265.795C265.133 335.808 264.497 335.544 264.028 335.076C263.56 334.607 263.296 333.972 263.295 333.309V304.309C263.296 303.646 263.56 303.011 264.028 302.542C264.497 302.073 265.133 301.81 265.795 301.809H284.795C285.458 301.81 286.094 302.073 286.562 302.542C287.031 303.011 287.295 303.646 287.295 304.309V333.309C287.295 333.972 287.031 334.607 286.562 335.076C286.094 335.544 285.458 335.808 284.795 335.809V335.809Z" fill="white"/>
<path d="M696.795 226.809H680.795C679.602 226.807 678.459 226.333 677.615 225.489C676.771 224.646 676.297 223.502 676.295 222.309V201.309C676.297 200.116 676.771 198.972 677.615 198.128C678.459 197.285 679.602 196.81 680.795 196.809H696.795C697.988 196.81 699.132 197.285 699.976 198.128C700.82 198.972 701.294 200.116 701.295 201.309V222.309C701.294 223.502 700.82 224.646 699.976 225.489C699.132 226.333 697.988 226.807 696.795 226.809Z" fill="#E6E6E6"/>
<path d="M831.795 397.809H749.795C747.542 397.806 745.381 396.91 743.788 395.316C742.194 393.723 741.298 391.562 741.295 389.309V230.309C741.298 228.055 742.194 225.895 743.788 224.301C745.381 222.708 747.542 221.811 749.795 221.809H831.795C834.049 221.811 836.21 222.708 837.803 224.301C839.397 225.895 840.293 228.055 840.295 230.309V389.309C840.293 391.562 839.397 393.723 837.803 395.316C836.21 396.91 834.049 397.806 831.795 397.809V397.809Z" fill="#E6E6E6"/>
<path d="M782.795 397.809H640.795C638.542 397.806 636.381 396.91 634.788 395.316C633.194 393.723 632.298 391.562 632.295 389.309V230.309C632.298 228.055 633.194 225.895 634.788 224.301C636.381 222.708 638.542 221.811 640.795 221.809H782.795C785.049 221.811 787.21 222.708 788.803 224.301C790.397 225.895 791.293 228.055 791.295 230.309V389.309C791.293 391.562 790.397 393.723 788.803 395.316C787.21 396.91 785.049 397.806 782.795 397.809V397.809Z" fill="#F2F2F2"/>
<path d="M681.795 226.809H665.795C664.602 226.807 663.459 226.333 662.615 225.489C661.771 224.646 661.297 223.502 661.295 222.309V201.309C661.297 200.116 661.771 198.972 662.615 198.128C663.459 197.285 664.602 196.81 665.795 196.809H681.795C682.988 196.81 684.132 197.285 684.976 198.128C685.82 198.972 686.294 200.116 686.295 201.309V222.309C686.294 223.502 685.82 224.646 684.976 225.489C684.132 226.333 682.988 226.807 681.795 226.809V226.809Z" fill="#F2F2F2"/>
<path d="M702.795 300.309H683.795C683.133 300.308 682.497 300.044 682.029 299.576C681.56 299.107 681.296 298.472 681.295 297.809V268.809C681.296 268.146 681.56 267.511 682.029 267.042C682.497 266.573 683.133 266.31 683.795 266.309H702.795C703.458 266.31 704.094 266.573 704.562 267.042C705.031 267.511 705.295 268.146 705.295 268.809V297.809C705.295 298.472 705.031 299.107 704.562 299.576C704.094 300.044 703.458 300.308 702.795 300.309V300.309Z" fill="white"/>
<path d="M739.795 300.309H720.795C720.133 300.308 719.497 300.044 719.029 299.576C718.56 299.107 718.296 298.472 718.295 297.809V268.809C718.296 268.146 718.56 267.511 719.029 267.042C719.497 266.573 720.133 266.31 720.795 266.309H739.795C740.458 266.31 741.094 266.573 741.562 267.042C742.031 267.511 742.295 268.146 742.295 268.809V297.809C742.295 298.472 742.031 299.107 741.562 299.576C741.094 300.044 740.458 300.308 739.795 300.309V300.309Z" fill="white"/>
<path d="M702.795 353.309H683.795C683.133 353.308 682.497 353.044 682.029 352.576C681.56 352.107 681.296 351.472 681.295 350.809V321.809C681.296 321.146 681.56 320.511 682.029 320.042C682.497 319.573 683.133 319.31 683.795 319.309H702.795C703.458 319.31 704.094 319.573 704.562 320.042C705.031 320.511 705.295 321.146 705.295 321.809V350.809C705.295 351.472 705.031 352.107 704.562 352.576C704.094 353.044 703.458 353.308 702.795 353.309V353.309Z" fill="white"/>
<path d="M739.795 353.309H720.795C720.133 353.308 719.497 353.044 719.029 352.576C718.56 352.107 718.296 351.472 718.295 350.809V321.809C718.296 321.146 718.56 320.511 719.029 320.042C719.497 319.573 720.133 319.31 720.795 319.309H739.795C740.458 319.31 741.094 319.573 741.562 320.042C742.031 320.511 742.295 321.146 742.295 321.809V350.809C742.295 351.472 742.031 352.107 741.562 352.576C741.094 353.044 740.458 353.308 739.795 353.309Z" fill="white"/>
<path d="M1046.8 398.309H1C0.734784 398.309 0.480429 398.203 0.292892 398.016C0.105356 397.828 0 397.574 0 397.309C0 397.044 0.105356 396.789 0.292892 396.602C0.480429 396.414 0.734784 396.309 1 396.309H1046.8C1047.06 396.309 1047.31 396.414 1047.5 396.602C1047.69 396.789 1047.8 397.044 1047.8 397.309C1047.8 397.574 1047.69 397.828 1047.5 398.016C1047.31 398.203 1047.06 398.309 1046.8 398.309Z" fill="#E6E6E6"/>
<path d="M415.795 325.707C415.795 308.046 401.469 266.137 383.795 266.137C366.122 266.137 351.795 308.046 351.795 325.707C351.795 334.194 355.167 342.334 361.168 348.335C367.169 354.336 375.309 357.707 383.795 357.707C392.282 357.707 400.422 354.336 406.423 348.335C412.424 342.334 415.795 334.194 415.795 325.707H415.795Z" fill="#E6E6E6"/>
<path d="M407.795 325.707C407.795 308.046 393.469 266.137 375.795 266.137C358.122 266.137 343.795 308.046 343.795 325.707C343.795 334.194 347.167 342.334 353.168 348.335C359.169 354.336 367.309 357.707 375.795 357.707C384.282 357.707 392.422 354.336 398.423 348.335C404.424 342.334 407.795 334.194 407.795 325.707H407.795Z" fill="#F2F2F2"/>
<path d="M376.795 397.258C376.53 397.258 376.276 397.152 376.088 396.965C375.901 396.777 375.795 396.523 375.795 396.258V307.117C375.795 306.852 375.901 306.598 376.088 306.41C376.276 306.223 376.53 306.117 376.795 306.117C377.061 306.117 377.315 306.223 377.503 306.41C377.69 306.598 377.795 306.852 377.795 307.117V396.258C377.795 396.523 377.69 396.777 377.503 396.965C377.315 397.152 377.061 397.258 376.795 397.258Z" fill="#CCCCCC"/>
<path d="M376.795 321.73C376.597 321.73 376.404 321.672 376.24 321.562C376.075 321.452 375.947 321.296 375.872 321.113C375.796 320.93 375.776 320.729 375.815 320.535C375.853 320.341 375.948 320.163 376.088 320.023L389.166 306.945C389.353 306.758 389.608 306.652 389.873 306.652C390.138 306.652 390.392 306.758 390.58 306.945C390.767 307.133 390.873 307.387 390.873 307.652C390.873 307.917 390.767 308.172 390.58 308.359L377.502 321.437C377.41 321.53 377.299 321.604 377.178 321.654C377.057 321.705 376.927 321.731 376.795 321.73Z" fill="#CCCCCC"/>
<path d="M926.795 325.707C926.795 308.046 912.469 266.137 894.795 266.137C877.122 266.137 862.795 308.046 862.795 325.707C862.795 334.194 866.167 342.334 872.168 348.335C878.169 354.336 886.309 357.707 894.795 357.707C903.282 357.707 911.422 354.336 917.423 348.335C923.424 342.334 926.796 334.194 926.796 325.707H926.795Z" fill="#E6E6E6"/>
<path d="M918.795 325.707C918.795 308.046 904.469 266.137 886.795 266.137C869.122 266.137 854.795 308.046 854.795 325.707C854.795 334.194 858.167 342.334 864.168 348.335C870.169 354.336 878.309 357.707 886.795 357.707C895.282 357.707 903.422 354.336 909.423 348.335C915.424 342.334 918.796 334.194 918.796 325.707H918.795Z" fill="#F2F2F2"/>
<path d="M887.795 397.258C887.53 397.258 887.276 397.152 887.088 396.965C886.901 396.777 886.795 396.523 886.795 396.258V307.117C886.795 306.852 886.901 306.598 887.088 306.41C887.276 306.223 887.53 306.117 887.795 306.117C888.061 306.117 888.315 306.223 888.503 306.41C888.69 306.598 888.795 306.852 888.795 307.117V396.258C888.795 396.523 888.69 396.777 888.503 396.965C888.315 397.152 888.061 397.258 887.795 397.258Z" fill="#CCCCCC"/>
<path d="M887.795 321.73C887.597 321.73 887.404 321.672 887.24 321.562C887.075 321.452 886.947 321.296 886.872 321.113C886.796 320.93 886.776 320.729 886.815 320.535C886.853 320.341 886.948 320.163 887.088 320.023L900.166 306.945C900.353 306.758 900.608 306.652 900.873 306.652C901.138 306.652 901.392 306.758 901.58 306.945C901.767 307.133 901.873 307.387 901.873 307.652C901.873 307.917 901.767 308.172 901.58 308.359L888.502 321.437C888.41 321.53 888.299 321.604 888.178 321.654C888.057 321.705 887.927 321.731 887.795 321.73V321.73Z" fill="#CCCCCC"/>
<path d="M556.795 336.809H534.795C534.132 336.808 533.497 336.545 533.028 336.076C532.559 335.607 532.296 334.972 532.295 334.309V312.309C532.296 311.646 532.559 311.01 533.028 310.542C533.497 310.073 534.132 309.809 534.795 309.809H556.795C557.458 309.809 558.094 310.073 558.562 310.542C559.031 311.01 559.295 311.646 559.295 312.309V334.309C559.295 334.972 559.031 335.607 558.562 336.076C558.094 336.545 557.458 336.808 556.795 336.809Z" fill="#3F3D56"/>
<path d="M770.361 347.522C770.601 347.585 770.825 347.7 771.016 347.859C771.207 348.018 771.361 348.217 771.467 348.442C771.573 348.667 771.628 348.912 771.629 349.16C771.63 349.409 771.576 349.655 771.472 349.88L775.82 354.073L772.757 354.76L769.098 350.673C768.73 350.472 768.449 350.144 768.308 349.75C768.166 349.357 768.174 348.925 768.33 348.536C768.486 348.148 768.778 347.83 769.153 347.643C769.527 347.456 769.957 347.413 770.361 347.522H770.361Z" fill="#FFB8B8"/>
<path d="M776.475 358.553L771.112 353.521C771.037 353.451 770.978 353.368 770.937 353.275C770.896 353.182 770.873 353.082 770.871 352.981C770.87 352.879 770.888 352.778 770.926 352.684C770.963 352.59 771.019 352.504 771.091 352.432L772.186 351.322C772.316 351.191 772.49 351.111 772.674 351.098C772.859 351.086 773.042 351.14 773.189 351.253L777.684 354.688L780.489 347.886C780.599 347.618 780.764 347.375 780.972 347.173C781.18 346.971 781.428 346.813 781.699 346.711C781.971 346.608 782.26 346.562 782.55 346.575C782.84 346.589 783.124 346.662 783.385 346.79V346.79C783.796 346.988 784.131 347.315 784.341 347.721C784.55 348.126 784.622 348.589 784.546 349.039C784.037 352.133 780.954 356.223 779.162 358.385C778.917 358.68 778.587 358.891 778.217 358.99C777.847 359.09 777.456 359.072 777.096 358.939C776.866 358.853 776.655 358.722 776.475 358.553V358.553Z" fill="#1B4965"/>
<path d="M773.465 353.671L769.516 347.944C769.466 347.87 769.446 347.779 769.462 347.691C769.479 347.602 769.529 347.524 769.603 347.473L769.761 347.364C769.798 347.339 769.839 347.321 769.883 347.312C769.926 347.302 769.971 347.302 770.014 347.31C770.058 347.318 770.1 347.334 770.137 347.358C770.174 347.383 770.206 347.414 770.232 347.45L774.181 353.178C774.206 353.215 774.224 353.256 774.233 353.299C774.242 353.343 774.243 353.388 774.235 353.431C774.227 353.475 774.21 353.517 774.186 353.554C774.162 353.591 774.131 353.623 774.094 353.649L773.936 353.758C773.862 353.809 773.771 353.828 773.683 353.812C773.594 353.796 773.516 353.745 773.465 353.671V353.671Z" fill="white"/>
<path d="M772.361 353.714L769.084 348.96C768.944 348.757 768.891 348.507 768.936 348.264C768.98 348.022 769.119 347.807 769.322 347.667L769.656 347.437L773.988 353.721L773.655 353.952C773.452 354.091 773.201 354.145 772.959 354.1C772.716 354.056 772.502 353.917 772.361 353.714V353.714Z" fill="#3F3D56"/>
<path d="M772.758 394.744L770.699 394.507L770.972 386.492L773.674 386.804L772.758 394.744Z" fill="#FFB8B8"/>
<path d="M773.053 396.801L766.415 396.034L766.424 395.95C766.463 395.611 766.569 395.283 766.735 394.984C766.901 394.686 767.124 394.423 767.392 394.211C767.659 393.999 767.966 393.841 768.295 393.747C768.623 393.654 768.967 393.626 769.306 393.665H769.306L773.361 394.133L773.053 396.801Z" fill="#2F2E41"/>
<path d="M796.697 393.222L794.717 393.834L791.416 386.488L794.338 385.585L796.697 393.222Z" fill="#FFB8B8"/>
<path d="M797.795 394.986L791.411 396.958L791.386 396.877C791.285 396.551 791.25 396.208 791.281 395.868C791.313 395.528 791.411 395.197 791.571 394.895C791.73 394.593 791.948 394.325 792.211 394.107C792.474 393.889 792.777 393.725 793.103 393.624H793.103L797.003 392.42L797.795 394.986Z" fill="#2F2E41"/>
<path d="M770.46 392.897C770.25 392.832 770.075 392.689 769.97 392.497C769.864 392.305 769.838 392.08 769.896 391.868L771.137 377.583C771.194 376.932 771.399 376.302 771.736 375.741L779.248 363.274L785.97 364.482L786.013 364.5C789.28 366.501 792.181 376.203 794.986 385.586C795.422 387.045 795.873 388.554 796.313 389.996C796.395 390.202 796.393 390.431 796.308 390.636C796.223 390.84 796.061 391.004 795.857 391.091L793.822 391.947C793.629 392.029 793.413 392.036 793.215 391.967C793.017 391.898 792.852 391.758 792.752 391.573L782.289 372.417C782.276 372.393 782.257 372.373 782.234 372.357C782.212 372.342 782.186 372.333 782.159 372.33C782.132 372.327 782.104 372.33 782.079 372.34C782.054 372.349 782.031 372.365 782.014 372.386L775.941 379.258L773.71 392.353L773.701 392.381C773.62 392.569 773.475 392.72 773.291 392.809C773.107 392.897 772.898 392.917 772.701 392.863L770.512 392.904L770.499 392.904L770.46 392.897Z" fill="#2F2E41"/>
<path d="M778.884 364.641L778.842 364.627L778.829 364.584C778.798 364.48 775.725 354.083 778.494 347.455L778.497 347.449C778.578 347.291 780.509 343.58 782.753 343.209L782.813 343.199L783.543 344.563C783.772 344.792 787.72 348.892 785.928 355.938C786.089 356.516 788.269 364.449 787.083 365.634C786.651 365.932 786.126 366.064 785.604 366.005C783.319 365.81 781.064 365.352 778.884 364.641V364.641Z" fill="#1B4965"/>
<path d="M782.29 341.909C785.185 341.909 787.531 339.563 787.531 336.669C787.531 333.775 785.185 331.429 782.29 331.429C779.396 331.429 777.05 333.775 777.05 336.669C777.05 339.563 779.396 341.909 782.29 341.909Z" fill="#2F2E41"/>
<path d="M780.209 341.884C782.502 341.884 784.361 340.025 784.361 337.732C784.361 335.439 782.502 333.581 780.209 333.581C777.916 333.581 776.057 335.439 776.057 337.732C776.057 340.025 777.916 341.884 780.209 341.884Z" fill="#FFB8B8"/>
<path d="M782.881 341.765C782.502 341.899 782.037 342.018 781.739 341.739C781.615 341.579 781.543 341.384 781.531 341.182C781.519 340.979 781.568 340.778 781.673 340.604C781.888 340.262 782.062 339.895 782.192 339.512C782.23 339.225 782.194 338.932 782.086 338.662C781.978 338.393 781.802 338.156 781.575 337.975C781.125 337.631 780.615 337.375 780.071 337.218L777.165 336.185C776.41 336.007 775.739 335.572 775.268 334.956C775.025 334.442 774.983 333.856 775.151 333.313C775.319 332.77 775.683 332.309 776.173 332.022C776.667 331.773 777.21 331.638 777.763 331.627C778.315 331.616 778.864 331.73 779.367 331.959C779.921 332.217 780.489 332.445 781.069 332.64C782.232 332.947 783.556 332.671 784.578 333.328C785.01 333.655 785.352 334.085 785.575 334.579C785.797 335.073 785.892 335.615 785.851 336.155C785.764 337.241 785.474 338.301 784.996 339.281C784.775 339.885 784.454 340.447 784.048 340.946C783.849 341.19 783.595 341.382 783.306 341.506C783.017 341.631 782.703 341.684 782.389 341.661L782.881 341.765Z" fill="#2F2E41"/>
<path d="M786.685 337.514C788.553 337.514 790.066 336 790.066 334.133C790.066 332.266 788.553 330.752 786.685 330.752C784.818 330.752 783.305 332.266 783.305 334.133C783.305 336 784.818 337.514 786.685 337.514Z" fill="#2F2E41"/>
<path d="M781.107 339.035C781.107 338.974 781.124 338.914 781.156 338.861C781.187 338.808 781.232 338.765 781.286 338.737C781.341 338.708 781.402 338.694 781.463 338.697C781.524 338.7 781.583 338.72 781.634 338.754C781.685 338.789 781.726 338.836 781.752 338.892C781.778 338.947 781.788 339.009 781.782 339.07C781.775 339.131 781.753 339.189 781.716 339.238C781.679 339.287 781.629 339.325 781.572 339.348V340.092C781.572 340.108 781.569 340.125 781.563 340.141C781.557 340.156 781.547 340.17 781.536 340.182C781.524 340.194 781.51 340.203 781.494 340.21C781.479 340.216 781.462 340.22 781.445 340.22C781.429 340.22 781.412 340.216 781.397 340.21C781.381 340.203 781.367 340.194 781.355 340.182C781.344 340.17 781.334 340.156 781.328 340.141C781.322 340.125 781.319 340.108 781.319 340.092V339.348C781.256 339.323 781.203 339.28 781.165 339.224C781.128 339.168 781.107 339.103 781.107 339.035V339.035Z" fill="white"/>
<path d="M770.567 351.071C770.814 351.046 771.064 351.076 771.298 351.158C771.533 351.241 771.746 351.373 771.924 351.547C772.101 351.721 772.239 351.932 772.326 352.164C772.414 352.397 772.449 352.646 772.43 352.894L777.967 355.308L775.335 357.019L770.481 354.464C770.067 354.404 769.689 354.195 769.419 353.875C769.149 353.555 769.006 353.148 769.016 352.729C769.027 352.311 769.191 351.911 769.476 351.605C769.762 351.3 770.15 351.11 770.567 351.071Z" fill="#FFB8B8"/>
<path d="M780.142 359.279L773.361 356.432C773.267 356.392 773.182 356.335 773.111 356.262C773.04 356.189 772.985 356.103 772.947 356.009C772.91 355.914 772.892 355.813 772.895 355.712C772.897 355.61 772.92 355.51 772.962 355.418L773.602 353.996C773.678 353.828 773.813 353.693 773.981 353.616C774.15 353.54 774.34 353.527 774.517 353.581L779.928 355.234L780.186 347.882C780.196 347.592 780.266 347.307 780.39 347.045C780.515 346.783 780.692 346.549 780.911 346.358C781.129 346.167 781.385 346.023 781.661 345.935C781.938 345.846 782.23 345.816 782.518 345.845V345.845C782.973 345.888 783.401 346.077 783.739 346.384C784.076 346.691 784.305 347.1 784.391 347.548C784.992 350.625 783.528 355.533 782.602 358.185C782.475 358.546 782.239 358.86 781.927 359.082C781.615 359.304 781.242 359.423 780.859 359.424C780.613 359.424 780.369 359.374 780.142 359.279Z" fill="#1B4965"/>
<path d="M412.98 364.055C413.135 363.902 413.254 363.718 413.329 363.514C413.404 363.31 413.434 363.092 413.416 362.876C413.398 362.66 413.333 362.45 413.225 362.261C413.117 362.073 412.969 361.91 412.792 361.785L412.042 356.839L408.96 357.809L410.648 362.221C410.458 362.534 410.388 362.905 410.453 363.265C410.518 363.624 410.712 363.948 411 364.174C411.287 364.4 411.648 364.513 412.013 364.491C412.378 364.469 412.722 364.314 412.98 364.055V364.055Z" fill="#FFB8B8"/>
<path d="M409.805 361.728L407.904 352.85C407.719 351.999 407.755 351.116 408.01 350.283C408.264 349.451 408.727 348.698 409.356 348.096C411.789 345.751 414.917 342.795 415.997 342.031C417.011 341.308 418.238 340.946 419.482 341.002L419.508 341.005L421.143 342.55L417.581 348.415L412.173 351.803L412.775 360.505L409.805 361.728Z" fill="#1B4965"/>
<path d="M416.463 349.663H408.485C408.14 349.663 407.86 349.943 407.86 350.289C407.86 350.635 408.14 350.915 408.485 350.915H416.463C416.809 350.915 417.089 350.635 417.089 350.289C417.089 349.943 416.809 349.663 416.463 349.663Z" fill="#CCCCCC"/>
<path d="M416.463 363.272H408.485C408.14 363.272 407.86 363.552 407.86 363.898C407.86 364.243 408.14 364.524 408.485 364.524H416.463C416.809 364.524 417.089 364.243 417.089 363.898C417.089 363.552 416.809 363.272 416.463 363.272Z" fill="#CCCCCC"/>
<path d="M412.552 397.373C412.474 397.372 412.399 397.343 412.341 397.29C412.283 397.238 412.248 397.165 412.241 397.087L408.253 350.317C408.249 350.276 408.253 350.234 408.265 350.195C408.278 350.156 408.297 350.119 408.324 350.088C408.35 350.056 408.383 350.03 408.419 350.011C408.456 349.992 408.495 349.98 408.536 349.977C408.577 349.973 408.619 349.977 408.658 349.99C408.697 350.002 408.734 350.022 408.765 350.049C408.797 350.075 408.823 350.107 408.842 350.144C408.861 350.18 408.872 350.22 408.876 350.261L412.548 393.474L416.115 350.262C416.119 350.221 416.13 350.181 416.149 350.144C416.168 350.108 416.194 350.075 416.225 350.049C416.257 350.022 416.293 350.002 416.333 349.99C416.372 349.977 416.413 349.972 416.454 349.976C416.495 349.98 416.535 349.991 416.572 350.01C416.608 350.029 416.641 350.055 416.667 350.087C416.694 350.118 416.714 350.155 416.726 350.194C416.738 350.233 416.743 350.275 416.739 350.316L412.864 397.087C412.857 397.165 412.822 397.237 412.764 397.29C412.706 397.343 412.631 397.372 412.553 397.373L412.552 397.373Z" fill="#CCCCCC"/>
<path d="M421.505 339.13C423.772 339.13 425.61 337.293 425.61 335.026C425.61 332.759 423.772 330.921 421.505 330.921C419.238 330.921 417.401 332.759 417.401 335.026C417.401 337.293 419.238 339.13 421.505 339.13Z" fill="#FFB8B8"/>
<path d="M409.273 395.497L407.321 394.875L408.792 387.05L411.673 387.968L409.273 395.497Z" fill="#FFB8B8"/>
<path d="M409.165 397.228L402.881 395.225L402.933 395.062C403.133 394.438 403.572 393.918 404.154 393.617C404.737 393.316 405.415 393.258 406.04 393.457L409.968 394.709L409.165 397.228Z" fill="#2F2E41"/>
<path d="M423.475 395.456H421.426L420.451 387.554H423.475V395.456Z" fill="#FFB8B8"/>
<path d="M417.553 397.281H423.835V394.949H419.869C419.255 394.95 418.667 395.194 418.232 395.628C417.798 396.063 417.554 396.652 417.553 397.266V397.281Z" fill="#2F2E41"/>
<path d="M423.415 392.892L422.723 392.789C421.855 392.737 420.996 392.576 420.167 392.311C419.997 392.237 419.986 391.108 420.088 384.763C420.162 380.106 420.256 374.309 420.075 371.197C420.067 371.075 420.019 370.958 419.937 370.866C419.855 370.774 419.744 370.713 419.623 370.692C419.502 370.67 419.377 370.69 419.269 370.749C419.161 370.807 419.075 370.9 419.026 371.013C417.466 374.616 414.848 382.68 413.115 388.017C412.513 389.873 412.037 391.339 411.736 392.218C411.678 392.384 411.56 392.523 411.405 392.606C411.25 392.69 411.069 392.713 410.898 392.671C409.473 392.315 409.568 392.163 407.537 391.638C407.362 391.593 407.21 391.482 407.115 391.328C407.019 391.174 406.986 390.989 407.024 390.812C407.391 389.08 414.112 360.998 414.627 358.328C414.644 358.237 414.68 358.15 414.731 358.072C414.782 357.994 414.848 357.928 414.925 357.876C415.002 357.824 415.089 357.788 415.18 357.769C415.272 357.751 415.365 357.751 415.457 357.769C416.97 358.074 417.89 358.398 419.386 358.71C420.999 359.048 422.668 359.397 424.295 359.723C424.457 359.755 424.603 359.844 424.705 359.974C425.159 360.459 425.717 360.834 426.337 361.07C426.763 361.274 425.798 361.256 426.169 361.55C427.672 362.74 425.51 386.904 424.204 392.362C424.162 392.532 424.058 392.681 423.912 392.78C423.766 392.878 423.589 392.918 423.415 392.892V392.892Z" fill="#2F2E41"/>
<path d="M423.255 338.617C423.015 337.601 424.226 335.413 423.987 334.396C423.824 333.707 422.205 334.175 421.827 333.577C421.652 333.269 421.403 333.009 421.104 332.818C420.804 332.628 420.463 332.514 420.109 332.487C419.296 332.478 418.496 333.081 417.726 332.82C417.544 332.73 417.381 332.604 417.248 332.45C417.115 332.297 417.013 332.118 416.95 331.925C416.886 331.732 416.862 331.528 416.877 331.325C416.893 331.122 416.949 330.924 417.042 330.744C417.455 330.025 418.095 329.463 418.861 329.148C420.069 328.41 421.515 328.167 422.898 328.47C423.689 328.777 424.414 329.232 425.033 329.812C425.654 330.272 426.2 330.826 426.651 331.454C427.033 332.108 427.241 332.851 427.253 333.609C427.265 334.367 427.081 335.115 426.72 335.782C425.972 337.112 424.781 338.138 423.354 338.678" fill="#2F2E41"/>
<path d="M413.177 362.279C413.62 361.539 414.292 358.071 415.121 352.252C415.686 348.279 416.178 344.242 416.422 342.18C416.441 342.013 416.502 341.853 416.6 341.717C416.697 341.58 416.828 341.47 416.979 341.397C417.137 341.321 417.295 341.248 417.451 341.18C419.331 340.32 421.417 340.016 423.464 340.303C425.511 340.591 427.433 341.458 429.002 342.803L429.021 342.82L429.025 342.845C429.034 342.891 429.882 347.459 428.145 350.546C426.433 353.591 426.413 361.656 426.413 361.737V361.841L426.313 361.812C423.649 361.051 413.357 362.383 413.254 362.397L413.094 362.418L413.177 362.279Z" fill="#1B4965"/>
<path d="M428.664 351.697H420.686C420.341 351.697 420.061 351.977 420.061 352.322C420.061 352.668 420.341 352.948 420.686 352.948H428.664C429.009 352.948 429.29 352.668 429.29 352.322C429.29 351.977 429.009 351.697 428.664 351.697Z" fill="#CCCCCC"/>
<path d="M428.664 365.306H420.686C420.341 365.306 420.061 365.586 420.061 365.931C420.061 366.277 420.341 366.557 420.686 366.557H428.664C429.009 366.557 429.29 366.277 429.29 365.931C429.29 365.586 429.009 365.306 428.664 365.306Z" fill="#CCCCCC"/>
<path d="M424.753 397.529C424.675 397.529 424.6 397.5 424.542 397.447C424.485 397.394 424.449 397.322 424.442 397.244L420.454 352.35C420.446 352.267 420.472 352.185 420.525 352.122C420.579 352.058 420.655 352.018 420.738 352.011C420.82 352.003 420.902 352.029 420.966 352.083C421.03 352.136 421.07 352.212 421.077 352.295L424.749 393.63L428.317 352.296C428.32 352.254 428.331 352.214 428.35 352.178C428.369 352.141 428.395 352.109 428.427 352.082C428.458 352.056 428.494 352.035 428.534 352.023C428.573 352.01 428.614 352.006 428.655 352.009C428.696 352.013 428.736 352.025 428.773 352.044C428.809 352.063 428.842 352.089 428.868 352.12C428.895 352.152 428.915 352.188 428.927 352.228C428.939 352.267 428.944 352.308 428.94 352.349L425.065 397.243C425.058 397.321 425.023 397.394 424.965 397.446C424.907 397.499 424.832 397.529 424.754 397.529L424.753 397.529Z" fill="#CCCCCC"/>
<path d="M422.177 365.504C422.131 365.292 422.131 365.072 422.179 364.86C422.226 364.648 422.32 364.449 422.452 364.277C422.585 364.105 422.754 363.964 422.947 363.865C423.14 363.765 423.352 363.709 423.569 363.7L426.886 359.956L428.946 362.445L425.131 365.232C425.122 365.597 424.979 365.946 424.729 366.213C424.479 366.48 424.139 366.646 423.775 366.68C423.411 366.713 423.047 366.612 422.753 366.395C422.458 366.179 422.254 365.861 422.177 365.504H422.177Z" fill="#FFB8B8"/>
<path d="M424.109 362.898L429.342 355.92L426.644 350.137L426.84 343.278L429.052 342.869L429.076 342.881C430.15 343.51 430.984 344.48 431.442 345.638C431.933 346.867 432.953 351.047 433.721 354.338C433.922 355.185 433.902 356.069 433.663 356.906C433.424 357.743 432.975 358.505 432.357 359.118L425.937 365.538L424.109 362.898Z" fill="#1B4965"/>
<path d="M402.171 395.589L409.331 397.312C409.469 397.349 409.617 397.336 409.747 397.275C409.877 397.215 409.982 397.11 410.043 396.98L416.194 380.627C416.221 380.564 416.235 380.496 416.235 380.428C416.235 380.359 416.221 380.292 416.194 380.229C416.163 380.158 416.118 380.095 416.062 380.042C416.005 379.989 415.939 379.948 415.866 379.922L410.483 377.866C410.398 377.834 410.307 377.819 410.216 377.824C410.125 377.829 410.036 377.854 409.955 377.895C409.885 377.93 409.823 377.98 409.773 378.04C409.724 378.101 409.688 378.172 409.667 378.248L409.667 378.248L405.868 392.661L405.811 392.665C404.632 392.734 403.511 393.201 402.632 393.99C402.449 394.21 402.314 394.466 402.234 394.741C402.155 395.016 402.133 395.305 402.171 395.589Z" fill="#CCCCCC"/>
<path d="M407.356 386.422L407.323 386.733L413.851 387.424L413.884 387.113L407.356 386.422Z" fill="#B3B3B3"/>
<path d="M406.787 388.999L406.658 389.284L411.912 391.648L412.04 391.363L406.787 388.999Z" fill="#B3B3B3"/>
<path d="M414.571 384.922L408.379 382.871L408.508 382.586L414.699 384.636L414.571 384.922Z" fill="#B3B3B3"/>
<path d="M415.197 383.514L409.005 380.525L409.133 380.239L415.325 383.228L415.197 383.514Z" fill="#B3B3B3"/>
<path d="M406.241 391.448L406.038 391.686L410.502 395.5L410.705 395.262L406.241 391.448Z" fill="#B3B3B3"/>
<path d="M404.973 392.713L404.688 392.842L406.481 396.795L406.766 396.666L404.973 392.713Z" fill="#B3B3B3"/>
<path d="M579.472 365.365C579.206 365.303 578.958 365.184 578.743 365.016C578.529 364.848 578.354 364.635 578.231 364.392C578.108 364.149 578.04 363.882 578.031 363.61C578.022 363.337 578.073 363.067 578.18 362.816L571.312 347.299L575.241 346.31L580.757 361.874C581.166 362.082 581.484 362.432 581.651 362.859C581.818 363.286 581.823 363.76 581.665 364.19C581.506 364.62 581.196 364.978 580.791 365.194C580.387 365.411 579.918 365.471 579.472 365.365V365.365Z" fill="#A0616A"/>
<path d="M572.587 352.161C572.477 352.112 572.38 352.04 572.3 351.95C572.221 351.86 572.163 351.753 572.128 351.638L570.927 347.621C570.665 347.065 570.634 346.427 570.842 345.848C571.05 345.269 571.479 344.796 572.036 344.533C572.592 344.271 573.23 344.24 573.809 344.448C574.389 344.656 574.861 345.085 575.124 345.642L577.446 349.149C577.512 349.249 577.556 349.362 577.575 349.481C577.594 349.6 577.586 349.721 577.554 349.836C577.521 349.952 577.464 350.059 577.387 350.151C577.309 350.242 577.213 350.316 577.104 350.367L573.283 352.155C573.174 352.206 573.055 352.233 572.935 352.234C572.815 352.235 572.696 352.21 572.587 352.161V352.161Z" fill="#1B4965"/>
<path d="M586.568 350.16L582.355 353.143C582.301 353.182 582.236 353.203 582.17 353.203C582.103 353.203 582.038 353.182 581.984 353.143L580.846 352.288C580.808 352.26 580.777 352.224 580.755 352.183C580.733 352.142 580.72 352.096 580.718 352.049C580.716 352.002 580.725 351.955 580.743 351.912C580.762 351.869 580.79 351.831 580.825 351.8L584.067 348.909C584.11 348.872 584.161 348.847 584.217 348.836C584.272 348.825 584.33 348.83 584.383 348.848L586.493 349.603C586.547 349.623 586.595 349.657 586.631 349.702C586.667 349.748 586.69 349.802 586.698 349.859C586.706 349.916 586.698 349.974 586.675 350.027C586.652 350.081 586.615 350.126 586.568 350.16V350.16Z" fill="#3F3D56"/>
<path d="M586.225 349.878C586.235 349.85 586.234 349.819 586.222 349.792C586.21 349.764 586.187 349.743 586.16 349.732L584.26 349.053C584.241 349.046 584.22 349.044 584.201 349.048C584.181 349.051 584.162 349.06 584.147 349.073L581.223 351.681L581.207 351.698C581.199 351.71 581.193 351.723 581.189 351.737C581.186 351.751 581.186 351.765 581.188 351.78C581.19 351.794 581.195 351.807 581.203 351.819C581.211 351.832 581.221 351.842 581.232 351.85L582.256 352.619C582.275 352.633 582.299 352.641 582.323 352.64C582.346 352.64 582.37 352.632 582.389 352.618L586.185 349.93C586.204 349.917 586.217 349.899 586.225 349.878Z" fill="white"/>
<path d="M571.214 394.628H573.34L574.352 386.427H571.214V394.628Z" fill="#A0616A"/>
<path d="M570.672 393.934L574.859 393.934H574.859C575.209 393.934 575.556 394.003 575.88 394.137C576.204 394.271 576.498 394.467 576.746 394.715C576.994 394.963 577.19 395.257 577.324 395.581C577.459 395.905 577.528 396.252 577.528 396.602V396.689L570.672 396.689L570.672 393.934Z" fill="#2F2E41"/>
<path d="M564.103 394.628H566.23L567.241 386.427H564.103V394.628Z" fill="#A0616A"/>
<path d="M563.561 393.934L567.748 393.934H567.748C568.099 393.934 568.446 394.003 568.77 394.137C569.093 394.271 569.388 394.467 569.635 394.715C569.883 394.963 570.08 395.257 570.214 395.581C570.348 395.905 570.417 396.252 570.417 396.602V396.689L563.561 396.689L563.561 393.934Z" fill="#2F2E41"/>
<path d="M563.652 392.122C563.506 391.955 563.425 391.742 563.422 391.52C562.915 386.306 564.294 358.895 567.481 356.554L567.5 356.535L576.827 354.925L577.001 355.098C577.014 355.34 578.71 379.367 574.027 391.629C573.97 391.776 573.87 391.901 573.74 391.99C573.61 392.078 573.457 392.125 573.3 392.125H571.438C571.33 392.125 571.224 392.103 571.125 392.06C571.027 392.017 570.938 391.954 570.865 391.875C570.792 391.796 570.736 391.702 570.701 391.601C570.665 391.499 570.652 391.391 570.66 391.284L572.167 368.323C572.173 368.257 572.153 368.192 572.112 368.141C572.071 368.089 572.011 368.055 571.946 368.045C571.881 368.036 571.814 368.051 571.76 368.089C571.706 368.126 571.668 368.183 571.654 368.247L567.408 391.551C567.372 391.715 567.284 391.863 567.157 391.974C567.03 392.084 566.871 392.15 566.704 392.163L564.258 392.345C564.239 392.346 564.22 392.347 564.201 392.347C563.995 392.347 563.798 392.266 563.652 392.122V392.122Z" fill="#2F2E41"/>
<path d="M575.925 340.869C578.277 340.869 580.184 338.962 580.184 336.61C580.184 334.257 578.277 332.35 575.925 332.35C573.572 332.35 571.665 334.257 571.665 336.61C571.665 338.962 573.572 340.869 575.925 340.869Z" fill="#A0616A"/>
<path d="M565.665 360.285C565.485 360.101 565.382 359.856 565.376 359.6L567.115 351.456C565.728 345.56 567.575 344.454 569.66 343.337L569.646 343.33L570.517 340.974C570.545 340.869 570.595 340.771 570.664 340.688C570.734 340.605 570.821 340.538 570.92 340.493C571.018 340.447 571.125 340.424 571.234 340.425C571.342 340.426 571.449 340.45 571.547 340.497L575.986 342.856C576.186 342.968 576.334 343.154 576.398 343.374C576.473 343.608 576.468 343.86 576.384 344.09L576.056 344.978C576.904 346.11 578.215 350.589 576.827 352.323L577.874 358.103C577.897 358.316 577.844 358.529 577.726 358.707C577.607 358.885 577.429 359.015 577.224 359.076L566.285 360.479C566.242 360.488 566.199 360.492 566.156 360.492C565.971 360.49 565.795 360.415 565.665 360.285V360.285Z" fill="#1B4965"/>
<path d="M581.591 350.945C581.521 351.011 581.456 351.082 581.397 351.158L572.817 350.565L571.896 348.689L568.884 349.708L570.191 353.188C570.296 353.469 570.49 353.708 570.743 353.869C570.997 354.031 571.295 354.106 571.595 354.083L581.352 353.343C581.568 353.643 581.87 353.87 582.218 353.994C582.567 354.118 582.944 354.134 583.301 354.038C583.658 353.942 583.978 353.739 584.217 353.458C584.456 353.176 584.604 352.828 584.641 352.46C584.677 352.092 584.601 351.722 584.422 351.398C584.243 351.075 583.97 350.813 583.639 350.649C583.308 350.484 582.934 350.425 582.569 350.478C582.203 350.531 581.862 350.694 581.591 350.945V350.945Z" fill="#A0616A"/>
<path d="M572.497 350.595L568.757 351.84C568.651 351.875 568.538 351.887 568.426 351.875C568.315 351.863 568.207 351.827 568.111 351.77C568.015 351.712 567.932 351.635 567.868 351.543C567.804 351.45 567.761 351.345 567.742 351.235L567.06 347.365C566.882 346.819 566.927 346.225 567.186 345.713C567.445 345.201 567.897 344.812 568.442 344.633C568.987 344.453 569.581 344.497 570.094 344.755C570.607 345.012 570.996 345.463 571.177 346.008L572.947 349.502C572.997 349.602 573.026 349.712 573.03 349.824C573.035 349.936 573.015 350.048 572.972 350.152C572.929 350.255 572.865 350.348 572.783 350.425C572.701 350.502 572.603 350.559 572.497 350.595V350.595Z" fill="#1B4965"/>
<path d="M573.532 333.246C575.448 333.246 577.001 331.693 577.001 329.777C577.001 327.862 575.448 326.309 573.532 326.309C571.616 326.309 570.063 327.862 570.063 329.777C570.063 331.693 571.616 333.246 573.532 333.246Z" fill="#2F2E41"/>
<path d="M579.957 337.136C580.293 337.203 580.641 337.174 580.961 337.052C581.124 336.96 581.263 336.83 581.367 336.674C581.47 336.517 581.536 336.339 581.557 336.153C582.203 331.859 578.552 332.212 578.12 332.026C577.848 331.866 577.592 331.679 577.357 331.469C576.749 331.131 576.055 330.979 575.362 331.03C574.542 330.954 573.715 331.055 572.938 331.326C572.26 331.644 571.698 332.162 571.326 332.811C570.959 333.458 570.69 334.155 570.527 334.881C570.272 335.702 570.225 336.574 570.392 337.418C570.569 338.048 570.939 338.606 571.449 339.016C571.96 339.425 572.586 339.664 573.239 339.7C573.134 339.195 573.199 338.669 573.423 338.205C573.647 337.74 574.018 337.362 574.478 337.129C575.21 336.769 576.043 336.67 576.84 336.848C577.356 336.952 577.88 337.018 578.406 337.043C578.922 337.062 579.542 337.092 579.957 337.136Z" fill="#2F2E41"/>
<path d="M913.32 395.474C913.323 390.924 915.133 386.561 918.352 383.345C921.571 380.129 925.935 378.322 930.485 378.322C935.035 378.322 939.4 380.129 942.618 383.345C945.837 386.561 947.647 390.924 947.651 395.474" fill="#F2F2F2"/>
<path d="M930.485 395.474C930.362 395.474 930.244 395.425 930.157 395.338C930.07 395.251 930.021 395.133 930.021 395.01V385.964C930.021 385.841 930.07 385.723 930.157 385.636C930.244 385.549 930.362 385.5 930.485 385.5C930.608 385.5 930.726 385.549 930.813 385.636C930.9 385.723 930.949 385.841 930.949 385.964V395.01C930.949 395.133 930.9 395.251 930.813 395.338C930.726 395.425 930.608 395.474 930.485 395.474V395.474Z" fill="#CCCCCC"/>
<path d="M930.485 392.366C930.374 392.366 930.267 392.326 930.183 392.254L924.616 387.476C924.569 387.436 924.53 387.388 924.502 387.333C924.474 387.279 924.457 387.219 924.452 387.158C924.448 387.097 924.455 387.036 924.474 386.977C924.493 386.919 924.523 386.865 924.563 386.819C924.603 386.772 924.651 386.734 924.706 386.707C924.761 386.679 924.821 386.663 924.882 386.658C924.943 386.654 925.004 386.662 925.062 386.681C925.12 386.7 925.174 386.731 925.22 386.772L930.787 391.55C930.859 391.611 930.911 391.694 930.934 391.786C930.958 391.877 930.953 391.974 930.92 392.063C930.887 392.152 930.828 392.229 930.75 392.283C930.672 392.337 930.58 392.366 930.485 392.366L930.485 392.366Z" fill="#CCCCCC"/>
<path d="M966.208 395.474C966.211 390.924 968.021 386.561 971.24 383.345C974.459 380.129 978.823 378.322 983.373 378.322C987.923 378.322 992.287 380.129 995.506 383.345C998.725 386.561 1000.53 390.924 1000.54 395.474" fill="#F2F2F2"/>
<path d="M983.373 395.474C983.25 395.474 983.132 395.425 983.045 395.338C982.958 395.251 982.909 395.133 982.909 395.01V385.964C982.909 385.841 982.958 385.723 983.045 385.636C983.132 385.549 983.25 385.5 983.373 385.5C983.496 385.5 983.614 385.549 983.701 385.636C983.788 385.723 983.837 385.841 983.837 385.964V395.01C983.837 395.133 983.788 395.251 983.701 395.338C983.614 395.425 983.496 395.474 983.373 395.474V395.474Z" fill="#CCCCCC"/>
<path d="M983.373 392.366C983.262 392.366 983.155 392.326 983.071 392.254L977.504 387.476C977.457 387.436 977.418 387.388 977.39 387.333C977.362 387.279 977.345 387.219 977.34 387.158C977.335 387.097 977.342 387.036 977.361 386.977C977.38 386.919 977.411 386.865 977.45 386.818C977.49 386.772 977.539 386.734 977.594 386.706C977.649 386.679 977.708 386.662 977.77 386.658C977.831 386.654 977.892 386.661 977.95 386.681C978.008 386.7 978.062 386.731 978.108 386.772L983.675 391.55C983.747 391.611 983.799 391.694 983.822 391.786C983.846 391.877 983.841 391.974 983.808 392.063C983.775 392.152 983.716 392.229 983.638 392.283C983.56 392.337 983.468 392.366 983.373 392.366V392.366Z" fill="#CCCCCC"/>
</g>
<defs>
<clipPath id="clip0">
<rect width="1047.8" height="450.309" fill="white"/>
</clipPath>
</defs>
</svg>
