<svg width="454" height="283" viewBox="0 0 454 283" fill="none" xmlns="http://www.w3.org/2000/svg">
<g clip-path="url(#clip0)">
<path d="M68.351 77.2798C69.1082 69.335 71.1998 61.5652 74.5421 54.2808C75.4736 52.2536 76.4989 50.271 77.618 48.3331C77.6741 48.2317 77.6876 48.1131 77.6557 48.0022C77.6237 47.8914 77.5488 47.7969 77.4468 47.7388C77.3447 47.6807 77.2235 47.6635 77.1087 47.6908C76.9938 47.7181 76.8944 47.7877 76.8312 47.8851C72.7617 54.9435 69.9107 62.6055 68.3922 70.5647C67.9698 72.7874 67.6523 75.0258 67.4398 77.2798C67.3858 77.8484 68.2973 77.8448 68.351 77.2798V77.2798Z" fill="#E6E6E6"/>
<path d="M79.8248 49.7566C83.0118 49.7566 85.5954 47.2398 85.5954 44.1351C85.5954 41.0305 83.0118 38.5137 79.8248 38.5137C76.6378 38.5137 74.0542 41.0305 74.0542 44.1351C74.0542 47.2398 76.6378 49.7566 79.8248 49.7566Z" fill="#E6E6E6"/>
<path d="M68.9415 77.4291C69.4328 72.2749 70.7896 67.2343 72.958 62.5085C73.5623 61.1934 74.2274 59.9072 74.9534 58.65C74.9898 58.5843 74.9986 58.5073 74.9779 58.4354C74.9571 58.3635 74.9086 58.3022 74.8424 58.2645C74.7762 58.2268 74.6975 58.2156 74.623 58.2333C74.5485 58.251 74.484 58.2962 74.443 58.3594C71.8029 62.9385 69.9533 67.9092 68.9682 73.0727C68.6942 74.5147 68.4883 75.9668 68.3504 77.4291C68.3153 77.7979 68.9067 77.7956 68.9415 77.4291V77.4291Z" fill="#E6E6E6"/>
<path d="M76.385 59.5735C78.4526 59.5735 80.1287 57.9407 80.1287 55.9266C80.1287 53.9125 78.4526 52.2797 76.385 52.2797C74.3174 52.2797 72.6414 53.9125 72.6414 55.9266C72.6414 57.9407 74.3174 59.5735 76.385 59.5735Z" fill="#E6E6E6"/>
<path d="M68.1953 77.0848C65.3284 72.7265 63.2158 67.9391 61.9417 62.9137C61.5878 61.5147 61.3002 60.102 61.0789 58.6757C61.066 58.6021 61.0244 58.5362 60.9626 58.4919C60.9009 58.4476 60.8239 58.4283 60.7479 58.4383C60.6719 58.4482 60.6028 58.4865 60.5552 58.5451C60.5077 58.6037 60.4853 58.6781 60.4929 58.7524C61.3024 63.9448 62.9824 68.9723 65.4659 73.6339C66.1602 74.935 66.9147 76.2034 67.7292 77.439C67.9345 77.7508 68.3992 77.3947 68.1953 77.0848Z" fill="#E6E6E6"/>
<path d="M60.4883 59.3175C62.5559 59.3175 64.2319 57.6847 64.2319 55.6706C64.2319 53.6565 62.5559 52.0237 60.4883 52.0237C58.4207 52.0237 56.7446 53.6565 56.7446 55.6706C56.7446 57.6847 58.4207 59.3175 60.4883 59.3175Z" fill="#E6E6E6"/>
<path d="M56.7024 80.3115V73.1461C56.7032 72.4337 56.9941 71.7508 57.5112 71.247C58.0283 70.7433 58.7294 70.4599 59.4607 70.4591H76.6234C77.3547 70.4599 78.0558 70.7433 78.5729 71.247C79.09 71.7508 79.3809 72.4337 79.3817 73.1461V80.3115C79.3809 81.0239 79.09 81.7068 78.5729 82.2106C78.0558 82.7143 77.3547 82.9977 76.6234 82.9985H59.4607C58.7294 82.9977 58.0283 82.7143 57.5112 82.2106C56.9941 81.7068 56.7032 81.0239 56.7024 80.3115Z" fill="#F2F2F2"/>
<path d="M76.0105 34.6325H68.655C67.9237 34.6317 67.2226 34.3483 66.7055 33.8446C66.1884 33.3408 65.8976 32.6578 65.8967 31.9455V2.68701C65.8976 1.97462 66.1884 1.29163 66.7055 0.787898C67.2226 0.284162 67.9237 0.00081048 68.655 7.62939e-06H76.0105C76.7418 0.00081048 77.4429 0.284162 77.96 0.787898C78.4771 1.29163 78.7679 1.97462 78.7688 2.68701V31.9455C78.7679 32.6578 78.4771 33.3408 77.96 33.8446C77.4429 34.3483 76.7418 34.6317 76.0105 34.6325Z" fill="#F2F2F2"/>
<path d="M78.4625 5.67255H66.2034V8.061H78.4625V5.67255Z" fill="#CCCCCC"/>
<path d="M78.4625 24.183H66.2034V26.5715H78.4625V24.183Z" fill="#CCCCCC"/>
<path d="M94.3991 34.6325H87.0437C86.3124 34.6317 85.6113 34.3483 85.0942 33.8446C84.5771 33.3408 84.2862 32.6578 84.2854 31.9455V2.68701C84.2862 1.97462 84.5771 1.29163 85.0942 0.787898C85.6113 0.284162 86.3124 0.00081048 87.0437 7.62939e-06H94.3991C95.1304 0.00081048 95.8315 0.284162 96.3486 0.787898C96.8657 1.29163 97.1566 1.97462 97.1574 2.68701V31.9455C97.1566 32.6578 96.8657 33.3408 96.3486 33.8446C95.8315 34.3483 95.1304 34.6317 94.3991 34.6325V34.6325Z" fill="#F2F2F2"/>
<path d="M96.8509 5.67255H84.5918V8.061H96.8509V5.67255Z" fill="#CCCCCC"/>
<path d="M96.8509 24.183H84.5918V26.5715H96.8509V24.183Z" fill="#CCCCCC"/>
<path d="M112.788 34.6325H105.432C104.701 34.6317 104 34.3483 103.483 33.8446C102.966 33.3408 102.675 32.6578 102.674 31.9455V2.68701C102.675 1.97462 102.966 1.29163 103.483 0.787898C104 0.284162 104.701 0.00081048 105.432 7.62939e-06H112.788C113.519 0.00081048 114.22 0.284162 114.737 0.787898C115.254 1.29163 115.545 1.97462 115.546 2.68701V31.9455C115.545 32.6578 115.254 33.3408 114.737 33.8446C114.22 34.3483 113.519 34.6317 112.788 34.6325V34.6325Z" fill="#F2F2F2"/>
<path d="M115.24 5.67255H102.98V8.061H115.24V5.67255Z" fill="#CCCCCC"/>
<path d="M115.24 24.183H102.98V26.5715H115.24V24.183Z" fill="#CCCCCC"/>
<path d="M122.595 82.9985H115.239C114.508 82.9977 113.807 82.7143 113.29 82.2106C112.773 81.7068 112.482 81.0239 112.481 80.3115V51.053C112.482 50.3406 112.773 49.6576 113.29 49.1539C113.807 48.6502 114.508 48.3668 115.239 48.366H122.595C123.326 48.3668 124.027 48.6502 124.544 49.1539C125.062 49.6576 125.352 50.3406 125.353 51.053V80.3115C125.352 81.0239 125.062 81.7068 124.544 82.2106C124.027 82.7143 123.326 82.9977 122.595 82.9985Z" fill="#F2F2F2"/>
<path d="M125.047 54.0386H112.788V56.427H125.047V54.0386Z" fill="#CCCCCC"/>
<path d="M125.047 72.549H112.788V74.9375H125.047V72.549Z" fill="#CCCCCC"/>
<path d="M140.984 82.9985H133.628C132.897 82.9977 132.196 82.7143 131.679 82.2106C131.162 81.7068 130.871 81.0239 130.87 80.3115V51.053C130.871 50.3406 131.162 49.6576 131.679 49.1539C132.196 48.6502 132.897 48.3668 133.628 48.366H140.984C141.715 48.3668 142.416 48.6502 142.933 49.1539C143.45 49.6576 143.741 50.3406 143.742 51.053V80.3115C143.741 81.0239 143.45 81.7068 142.933 82.2106C142.416 82.7143 141.715 82.9977 140.984 82.9985Z" fill="#F2F2F2"/>
<path d="M143.436 54.0386H131.177V56.427H143.436V54.0386Z" fill="#CCCCCC"/>
<path d="M143.436 72.549H131.177V74.9375H143.436V72.549Z" fill="#CCCCCC"/>
<path d="M159.372 82.9985H152.017C151.286 82.9977 150.584 82.7143 150.067 82.2106C149.55 81.7068 149.259 81.0239 149.259 80.3115V51.053C149.259 50.3406 149.55 49.6576 150.067 49.1539C150.584 48.6502 151.286 48.3668 152.017 48.366H159.372C160.104 48.3668 160.805 48.6502 161.322 49.1539C161.839 49.6576 162.13 50.3406 162.131 51.053V80.3115C162.13 81.0239 161.839 81.7068 161.322 82.2106C160.805 82.7143 160.104 82.9977 159.372 82.9985Z" fill="#F2F2F2"/>
<path d="M161.824 54.0386H149.565V56.427H161.824V54.0386Z" fill="#CCCCCC"/>
<path d="M161.824 72.549H149.565V74.9375H161.824V72.549Z" fill="#CCCCCC"/>
<path d="M74.1716 131.364H66.8162C66.0849 131.364 65.3838 131.08 64.8667 130.577C64.3496 130.073 64.0587 129.39 64.0579 128.677V99.419C64.0587 98.7066 64.3496 98.0236 64.8667 97.5199C65.3838 97.0162 66.0849 96.7328 66.8162 96.732H74.1716C74.9029 96.7328 75.604 97.0162 76.1211 97.5199C76.6382 98.0236 76.9291 98.7066 76.9299 99.419V128.677C76.9291 129.39 76.6382 130.073 76.1211 130.577C75.604 131.08 74.9029 131.364 74.1716 131.364V131.364Z" fill="#F2F2F2"/>
<path d="M76.6236 102.405H64.3645V104.793H76.6236V102.405Z" fill="#CCCCCC"/>
<path d="M76.6236 120.915H64.3645V123.303H76.6236V120.915Z" fill="#CCCCCC"/>
<path d="M92.5603 131.364H85.2048C84.4735 131.364 83.7724 131.08 83.2553 130.577C82.7382 130.073 82.4474 129.39 82.4465 128.677V99.419C82.4474 98.7066 82.7382 98.0236 83.2553 97.5199C83.7724 97.0162 84.4735 96.7328 85.2048 96.732H92.5603C93.2916 96.7328 93.9927 97.0162 94.5098 97.5199C95.0269 98.0236 95.3177 98.7066 95.3186 99.419V128.677C95.3177 129.39 95.0269 130.073 94.5098 130.577C93.9927 131.08 93.2916 131.364 92.5603 131.364V131.364Z" fill="#F2F2F2"/>
<path d="M95.012 102.405H82.7529V104.793H95.012V102.405Z" fill="#CCCCCC"/>
<path d="M95.012 120.915H82.7529V123.303H95.012V120.915Z" fill="#CCCCCC"/>
<path d="M110.949 131.364H103.593C102.862 131.364 102.161 131.08 101.644 130.577C101.127 130.073 100.836 129.39 100.835 128.677V99.419C100.836 98.7066 101.127 98.0236 101.644 97.5199C102.161 97.0162 102.862 96.7328 103.593 96.732H110.949C111.68 96.7328 112.381 97.0162 112.898 97.5199C113.416 98.0236 113.706 98.7066 113.707 99.419V128.677C113.706 129.39 113.416 130.073 112.898 130.577C112.381 131.08 111.68 131.364 110.949 131.364V131.364Z" fill="#F2F2F2"/>
<path d="M113.401 102.405H101.142V104.793H113.401V102.405Z" fill="#CCCCCC"/>
<path d="M113.401 120.915H101.142V123.303H113.401V120.915Z" fill="#CCCCCC"/>
<path d="M131.176 34.6325H123.821C123.09 34.6317 122.389 34.3483 121.872 33.8446C121.354 33.3408 121.064 32.6578 121.063 31.9455V2.68701C121.064 1.97462 121.354 1.29163 121.872 0.787898C122.389 0.284162 123.09 0.00081048 123.821 7.62939e-06H131.176C131.908 0.00081048 132.609 0.284162 133.126 0.787898C133.643 1.29163 133.934 1.97462 133.935 2.68701V31.9455C133.934 32.6578 133.643 33.3408 133.126 33.8446C132.609 34.3483 131.908 34.6317 131.176 34.6325Z" fill="#F2F2F2"/>
<path d="M133.628 5.67255H121.369V8.061H133.628V5.67255Z" fill="#CCCCCC"/>
<path d="M133.628 24.183H121.369V26.5715H133.628V24.183Z" fill="#CCCCCC"/>
<path d="M149.565 34.6325H142.21C141.478 34.6317 140.777 34.3483 140.26 33.8446C139.743 33.3408 139.452 32.6578 139.451 31.9455V2.68701C139.452 1.97462 139.743 1.29163 140.26 0.787898C140.777 0.284162 141.478 0.00081048 142.21 7.62939e-06H149.565C150.296 0.00081048 150.998 0.284162 151.515 0.787898C152.032 1.29163 152.323 1.97462 152.323 2.68701V31.9455C152.323 32.6578 152.032 33.3408 151.515 33.8446C150.998 34.3483 150.296 34.6317 149.565 34.6325V34.6325Z" fill="#F2F2F2"/>
<path d="M152.017 5.67255H139.758V8.061H152.017V5.67255Z" fill="#CCCCCC"/>
<path d="M152.017 24.183H139.758V26.5715H152.017V24.183Z" fill="#CCCCCC"/>
<path d="M167.954 34.6325H160.598C159.867 34.6317 159.166 34.3483 158.649 33.8446C158.132 33.3408 157.841 32.6578 157.84 31.9455V2.68701C157.841 1.97462 158.132 1.29163 158.649 0.787898C159.166 0.284162 159.867 0.00081048 160.598 7.62939e-06H167.954C168.685 0.00081048 169.386 0.284162 169.903 0.787898C170.42 1.29163 170.711 1.97462 170.712 2.68701V31.9455C170.711 32.6578 170.42 33.3408 169.903 33.8446C169.386 34.3483 168.685 34.6317 167.954 34.6325Z" fill="#F2F2F2"/>
<path d="M170.406 5.67255H158.146V8.061H170.406V5.67255Z" fill="#CCCCCC"/>
<path d="M170.406 24.183H158.146V26.5715H170.406V24.183Z" fill="#CCCCCC"/>
<path d="M186.342 34.6325H178.987C178.256 34.6317 177.554 34.3483 177.037 33.8446C176.52 33.3408 176.229 32.6578 176.229 31.9455V2.68701C176.229 1.97462 176.52 1.29163 177.037 0.787898C177.554 0.284162 178.256 0.00081048 178.987 7.62939e-06H186.342C187.074 0.00081048 187.775 0.284162 188.292 0.787898C188.809 1.29163 189.1 1.97462 189.101 2.68701V31.9455C189.1 32.6578 188.809 33.3408 188.292 33.8446C187.775 34.3483 187.074 34.6317 186.342 34.6325Z" fill="#F2F2F2"/>
<path d="M188.794 5.67255H176.535V8.061H188.794V5.67255Z" fill="#CCCCCC"/>
<path d="M188.794 24.183H176.535V26.5715H188.794V24.183Z" fill="#CCCCCC"/>
<path d="M213.889 35.5281H39.1972C39.0346 35.5281 38.8787 35.4652 38.7638 35.3532C38.6488 35.2412 38.5842 35.0894 38.5842 34.931C38.5842 34.7727 38.6488 34.6208 38.7638 34.5088C38.8787 34.3968 39.0346 34.3339 39.1972 34.3339H213.889C214.052 34.3339 214.208 34.3968 214.323 34.5088C214.437 34.6208 214.502 34.7727 214.502 34.931C214.502 35.0894 214.437 35.2412 214.323 35.3532C214.208 35.4652 214.052 35.5281 213.889 35.5281Z" fill="#CCCCCC"/>
<path d="M213.889 83.8941H39.1972C39.0346 83.8941 38.8787 83.8312 38.7638 83.7192C38.6488 83.6072 38.5842 83.4554 38.5842 83.297C38.5842 83.1387 38.6488 82.9868 38.7638 82.8748C38.8787 82.7628 39.0346 82.6999 39.1972 82.6999H213.889C214.052 82.6999 214.208 82.7628 214.323 82.8748C214.437 82.9868 214.502 83.1387 214.502 83.297C214.502 83.4554 214.437 83.6072 214.323 83.7192C214.208 83.8312 214.052 83.8941 213.889 83.8941Z" fill="#CCCCCC"/>
<path d="M213.889 132.26H39.1972C39.0346 132.26 38.8787 132.197 38.7638 132.085C38.6488 131.973 38.5842 131.821 38.5842 131.663C38.5842 131.505 38.6488 131.353 38.7638 131.241C38.8787 131.129 39.0346 131.066 39.1972 131.066H213.889C214.052 131.066 214.208 131.129 214.323 131.241C214.437 131.353 214.502 131.505 214.502 131.663C214.502 131.821 214.437 131.973 214.323 132.085C214.208 132.197 214.052 132.26 213.889 132.26Z" fill="#CCCCCC"/>
<path d="M203.544 225.996C203.544 221.379 185.706 217.636 163.702 217.636C141.698 217.636 123.86 221.379 123.86 225.996C123.86 228.955 131.193 231.553 142.248 233.039V278.84C142.248 279.87 142.668 280.857 143.415 281.585C144.162 282.313 145.176 282.722 146.232 282.722C147.289 282.722 148.303 282.313 149.05 281.585C149.797 280.857 150.217 279.87 150.217 278.84V233.864C154.429 234.181 158.968 234.356 163.702 234.356C168.436 234.356 172.974 234.181 177.187 233.864V278.84C177.187 279.87 177.606 280.857 178.354 281.585C179.101 282.313 180.114 282.722 181.171 282.722C182.228 282.722 183.241 282.313 183.988 281.585C184.735 280.857 185.155 279.87 185.155 278.84V233.039C196.21 231.553 203.544 228.955 203.544 225.996Z" fill="#CCCCCC"/>
<path d="M195.877 275.212H203.392L206.967 246.976H195.876L195.877 275.212Z" fill="#A0616A"/>
<path d="M217.885 282.009L194.267 282.01L194.267 273.121L208.76 273.12C211.18 273.12 213.501 274.056 215.212 275.723C216.923 277.39 217.885 279.651 217.885 282.009V282.009L217.885 282.009Z" fill="#2F2E41"/>
<path d="M207.608 271.127L214.778 268.935L209.511 240.951L198.929 244.186L207.608 271.127Z" fill="#A0616A"/>
<path d="M230.695 271.193L208.161 278.082L205.429 269.601L219.256 265.373C221.565 264.667 224.068 264.884 226.213 265.975C228.358 267.067 229.97 268.944 230.695 271.193V271.193Z" fill="#2F2E41"/>
<path d="M202.581 258.13L188.834 222.978C185.75 223.683 159.886 229.259 151.224 220.274C148.255 217.194 147.676 212.733 149.503 207.013L154.558 200.825L154.715 200.833C156.627 200.931 201.567 203.385 204.647 216.59C207.245 227.723 211.988 248.479 213.38 254.575C213.521 255.207 213.425 255.867 213.108 256.435C212.791 257.003 212.276 257.442 211.655 257.67L206.127 259.69C205.819 259.803 205.492 259.861 205.163 259.861C204.604 259.86 204.057 259.695 203.596 259.386C203.135 259.077 202.781 258.639 202.581 258.13Z" fill="#2F2E41"/>
<path d="M194.612 262.31L180.865 227.158C177.781 227.863 151.918 233.438 143.255 224.454C140.287 221.374 139.708 216.913 141.534 211.193L146.59 205.004L146.747 205.013C148.658 205.111 193.598 207.564 196.679 220.77C199.276 231.902 204.02 252.658 205.412 258.755C205.553 259.387 205.456 260.047 205.14 260.615C204.823 261.183 204.308 261.621 203.687 261.85L198.159 263.869C197.851 263.982 197.524 264.04 197.195 264.04C196.635 264.04 196.089 263.875 195.628 263.566C195.167 263.257 194.813 262.819 194.612 262.31Z" fill="#2F2E41"/>
<path d="M213.19 178.044C212.987 178.309 212.805 178.589 212.647 178.881L182.416 181.984L178.064 176.172L168.202 181.423L176.749 195.527L213.825 186.319C214.76 187.207 215.951 187.797 217.239 188.01C218.527 188.223 219.851 188.049 221.035 187.511C222.219 186.973 223.207 186.097 223.867 184.999C224.527 183.901 224.829 182.633 224.731 181.364C224.634 180.095 224.142 178.884 223.322 177.894C222.501 176.904 221.39 176.181 220.138 175.82C218.885 175.46 217.549 175.48 216.308 175.877C215.067 176.274 213.979 177.03 213.19 178.044V178.044Z" fill="#A0616A"/>
<path d="M141.34 213.049C140.926 212.759 140.603 212.362 140.406 211.904C140.209 211.446 140.147 210.943 140.225 210.452C141.931 199.5 139.968 183.81 138.022 172.576C137.623 170.297 137.778 167.958 138.474 165.748C139.171 163.537 140.388 161.517 142.03 159.847C143.673 158.178 145.693 156.906 147.931 156.134C150.168 155.362 152.56 155.112 154.914 155.402C156.963 155.666 158.992 156.056 160.99 156.569C164.309 157.383 167.245 159.273 169.315 161.928C171.385 164.584 172.466 167.846 172.38 171.179C172.089 182.019 174.349 195.545 175.334 200.856C175.401 201.221 175.39 201.595 175.302 201.956C175.214 202.317 175.051 202.656 174.823 202.952C174.599 203.246 174.314 203.49 173.987 203.67C173.661 203.85 173.299 203.962 172.925 203.997C162.01 205.083 150.238 210.268 144.193 213.263C143.805 213.458 143.374 213.56 142.937 213.562C142.362 213.56 141.803 213.38 141.34 213.049V213.049Z" fill="#CAE9FF"/>
<path d="M170.805 184.799C170.468 184.67 170.16 184.477 169.9 184.231C169.639 183.985 169.432 183.692 169.289 183.367L163.201 169.668C162.833 168.84 162.635 167.95 162.62 167.048C162.605 166.146 162.772 165.25 163.113 164.411C163.453 163.572 163.96 162.806 164.604 162.158C165.249 161.51 166.018 160.992 166.868 160.634C167.718 160.275 168.632 160.084 169.558 160.07C170.484 160.056 171.404 160.219 172.265 160.552C173.126 160.884 173.911 161.379 174.576 162.007C175.241 162.635 175.772 163.385 176.139 164.213L182.227 177.912C182.516 178.566 182.528 179.306 182.259 179.968C181.989 180.63 181.462 181.162 180.791 181.445L172.916 184.766C172.584 184.907 172.226 184.983 171.864 184.989C171.501 184.994 171.142 184.93 170.805 184.799H170.805Z" fill="#CAE9FF"/>
<path d="M184.381 176.85C184.178 177.115 183.996 177.395 183.838 177.687L153.607 180.79L149.256 174.977L139.393 180.229L147.94 194.333L185.016 185.124C185.952 186.013 187.142 186.603 188.43 186.816C189.718 187.029 191.042 186.855 192.226 186.317C193.41 185.779 194.398 184.903 195.058 183.804C195.719 182.706 196.02 181.438 195.923 180.169C195.825 178.9 195.334 177.69 194.513 176.7C193.692 175.71 192.582 174.986 191.329 174.626C190.076 174.266 188.74 174.286 187.499 174.683C186.258 175.08 185.17 175.836 184.381 176.85V176.85Z" fill="#A0616A"/>
<path d="M141.996 185.396C141.659 185.267 141.351 185.074 141.091 184.828C140.83 184.582 140.623 184.289 140.48 183.964L134.392 170.265C134.024 169.438 133.826 168.547 133.811 167.645C133.796 166.743 133.963 165.847 134.304 165.008C134.644 164.169 135.151 163.403 135.796 162.755C136.44 162.107 137.209 161.589 138.059 161.231C138.909 160.872 139.823 160.681 140.749 160.667C141.675 160.653 142.595 160.817 143.456 161.149C144.317 161.481 145.102 161.976 145.767 162.604C146.432 163.232 146.963 163.982 147.33 164.81L153.418 178.509C153.707 179.163 153.719 179.903 153.45 180.565C153.181 181.227 152.653 181.759 151.982 182.042L144.107 185.363C143.775 185.505 143.417 185.58 143.055 185.586C142.693 185.591 142.333 185.527 141.996 185.396H141.996Z" fill="#CAE9FF"/>
<path d="M153.794 150.742C162.109 150.742 168.849 144.176 168.849 136.076C168.849 127.977 162.109 121.411 153.794 121.411C145.48 121.411 138.739 127.977 138.739 136.076C138.739 144.176 145.48 150.742 153.794 150.742Z" fill="#A0616A"/>
<path d="M143.03 146.142C142.966 145.957 142.945 145.761 142.97 145.568C142.995 145.375 143.066 145.191 143.176 145.028C143.285 144.866 143.432 144.73 143.604 144.631C143.776 144.532 143.969 144.473 144.168 144.458C144.576 144.48 144.975 144.582 145.341 144.758C145.707 144.934 146.033 145.18 146.299 145.482C146.844 146.094 147.478 146.625 148.181 147.057C148.909 147.415 149.897 147.364 150.312 146.682C150.702 146.042 150.435 145.184 150.199 144.441C149.599 142.549 149.262 140.586 149.2 138.607C149.132 136.397 149.452 134.091 150.708 132.368C152.328 130.144 155.226 129.3 157.968 129.361C160.711 129.422 163.409 130.247 166.125 130.768C167.063 130.948 168.165 131.04 168.792 130.332C169.459 129.579 169.214 128.361 168.931 127.344C168.195 124.707 167.414 121.979 165.703 119.849C163.854 117.636 161.212 116.187 158.311 115.795C155.525 115.459 152.697 115.771 150.059 116.707C145.761 118.027 141.98 120.593 139.22 124.063C136.375 127.753 135.146 132.39 135.801 136.961C136.441 140.941 138.606 144.538 141.86 147.025L143.03 146.142Z" fill="#2F2E41"/>
<path d="M85.5475 181.448C86.3048 173.503 88.3963 165.733 91.7387 158.449C92.6702 156.422 93.6955 154.439 94.8145 152.501C94.8706 152.4 94.8842 152.281 94.8522 152.17C94.8203 152.06 94.7454 151.965 94.6433 151.907C94.5413 151.849 94.42 151.832 94.3052 151.859C94.1904 151.886 94.0909 151.956 94.0278 152.053C89.9582 159.112 87.1072 166.774 85.5888 174.733C85.1664 176.956 84.8489 179.194 84.6363 181.448C84.5823 182.017 85.4938 182.013 85.5475 181.448V181.448Z" fill="#3F3D56"/>
<path d="M97.0213 153.925C100.208 153.925 102.792 151.408 102.792 148.303C102.792 145.199 100.208 142.682 97.0213 142.682C93.8343 142.682 91.2507 145.199 91.2507 148.303C91.2507 151.408 93.8343 153.925 97.0213 153.925Z" fill="#CAE9FF"/>
<path d="M86.1378 181.597C86.629 176.443 87.9859 171.402 90.1543 166.677C90.7586 165.362 91.4237 164.075 92.1497 162.818C92.1861 162.752 92.1949 162.675 92.1742 162.604C92.1534 162.532 92.1049 162.47 92.0387 162.433C91.9724 162.395 91.8938 162.384 91.8193 162.401C91.7448 162.419 91.6803 162.464 91.6393 162.528C88.9992 167.107 87.1496 172.077 86.1645 177.241C85.8905 178.683 85.6845 180.135 85.5467 181.597C85.5116 181.966 86.103 181.964 86.1378 181.597V181.597Z" fill="#3F3D56"/>
<path d="M93.5815 163.742C95.6491 163.742 97.3252 162.109 97.3252 160.095C97.3252 158.081 95.6491 156.448 93.5815 156.448C91.514 156.448 89.8379 158.081 89.8379 160.095C89.8379 162.109 91.514 163.742 93.5815 163.742Z" fill="#CAE9FF"/>
<path d="M85.3918 181.253C82.5249 176.895 80.4123 172.107 79.1382 167.082C78.7843 165.683 78.4967 164.27 78.2754 162.844C78.2626 162.77 78.2209 162.704 78.1591 162.66C78.0974 162.616 78.0204 162.597 77.9444 162.606C77.8684 162.616 77.7993 162.655 77.7518 162.713C77.7042 162.772 77.6818 162.846 77.6894 162.921C78.4989 168.113 80.1789 173.14 82.6624 177.802C83.3567 179.103 84.1112 180.372 84.9257 181.607C85.131 181.919 85.5957 181.563 85.3918 181.253Z" fill="#3F3D56"/>
<path d="M77.6848 163.486C79.7524 163.486 81.4285 161.853 81.4285 159.839C81.4285 157.825 79.7524 156.192 77.6848 156.192C75.6173 156.192 73.9412 157.825 73.9412 159.839C73.9412 161.853 75.6173 163.486 77.6848 163.486Z" fill="#CAE9FF"/>
<path d="M73.8992 184.48V177.314C73.9 176.602 74.1909 175.919 74.708 175.415C75.2251 174.911 75.9262 174.628 76.6575 174.627H93.8202C94.5515 174.628 95.2526 174.911 95.7697 175.415C96.2868 175.919 96.5777 176.602 96.5785 177.314V184.48C96.5777 185.192 96.2868 185.875 95.7697 186.379C95.2526 186.882 94.5515 187.166 93.8202 187.167H76.6575C75.9262 187.166 75.2251 186.882 74.708 186.379C74.1909 185.875 73.9 185.192 73.8992 184.48Z" fill="#CCCCCC"/>
<path d="M227.755 182.407H179.332C178.147 182.407 177.187 183.343 177.187 184.497C177.187 185.651 178.147 186.587 179.332 186.587H227.755C228.94 186.587 229.901 185.651 229.901 184.497C229.901 183.343 228.94 182.407 227.755 182.407Z" fill="#CCCCCC"/>
<path d="M260.242 186.587H205.689C204.633 186.586 203.62 186.176 202.873 185.449C202.126 184.721 201.706 183.734 201.705 182.705V153.447C201.706 152.418 202.126 151.431 202.873 150.704C203.62 149.976 204.633 149.567 205.689 149.566H260.242C261.298 149.567 262.311 149.976 263.058 150.704C263.805 151.431 264.225 152.418 264.226 153.447V182.705C264.225 183.734 263.805 184.721 263.058 185.449C262.311 186.176 261.298 186.586 260.242 186.587V186.587Z" fill="#CCCCCC"/>
<path d="M232.965 171.659C234.996 171.659 236.643 170.055 236.643 168.076C236.643 166.098 234.996 164.494 232.965 164.494C230.934 164.494 229.288 166.098 229.288 168.076C229.288 170.055 230.934 171.659 232.965 171.659Z" fill="white"/>
<path d="M399.076 225.996C399.076 221.379 381.238 217.636 359.234 217.636C337.23 217.636 319.392 221.379 319.392 225.996C319.392 228.955 326.726 231.553 337.781 233.039V278.84C337.781 279.87 338.2 280.857 338.948 281.585C339.695 282.313 340.708 282.722 341.765 282.722C342.822 282.722 343.835 282.313 344.582 281.585C345.329 280.857 345.749 279.87 345.749 278.84V233.864C349.961 234.181 354.5 234.356 359.234 234.356C363.968 234.356 368.507 234.181 372.719 233.864V278.84C372.719 279.87 373.139 280.857 373.886 281.585C374.633 282.313 375.647 282.722 376.703 282.722C377.76 282.722 378.773 282.313 379.521 281.585C380.268 280.857 380.687 279.87 380.687 278.84V233.039C391.743 231.553 399.076 228.955 399.076 225.996Z" fill="#CCCCCC"/>
<path d="M363.64 149.481C373.118 149.481 380.802 141.995 380.802 132.762C380.802 123.528 373.118 116.042 363.64 116.042C354.161 116.042 346.477 123.528 346.477 132.762C346.477 141.995 354.161 149.481 363.64 149.481Z" fill="#2F2E41"/>
<path d="M320.929 275.809H313.414L309.839 247.573H320.93L320.929 275.809Z" fill="#FFB8B8"/>
<path d="M308.046 273.717H322.539V282.606H298.921C298.921 281.439 299.157 280.283 299.616 279.205C300.074 278.126 300.746 277.146 301.594 276.321C302.441 275.495 303.447 274.841 304.554 274.394C305.661 273.947 306.848 273.717 308.046 273.717V273.717Z" fill="#2F2E41"/>
<path d="M309.198 271.724L302.028 269.532L307.295 241.548L317.877 244.783L309.198 271.724Z" fill="#FFB8B8"/>
<path d="M297.55 265.97L311.378 270.198L308.645 278.679L286.111 271.79C286.47 270.676 287.051 269.642 287.82 268.747C288.589 267.852 289.531 267.113 290.593 266.573C291.655 266.032 292.816 265.701 294.01 265.598C295.204 265.494 296.406 265.621 297.55 265.97V265.97Z" fill="#2F2E41"/>
<path d="M311.643 260.458C311.314 260.458 310.987 260.4 310.679 260.287L305.151 258.267C304.53 258.039 304.015 257.6 303.698 257.032C303.382 256.464 303.285 255.804 303.426 255.172C304.818 249.076 309.562 228.32 312.159 217.187C315.24 203.982 360.18 201.528 362.091 201.43L362.248 201.422L367.304 207.61C369.13 213.33 368.551 217.792 365.583 220.871C356.92 229.856 331.057 224.281 327.972 223.575L314.226 258.727C314.025 259.237 313.671 259.674 313.21 259.983C312.749 260.292 312.203 260.458 311.643 260.458V260.458Z" fill="#2F2E41"/>
<path d="M319.611 264.637C319.282 264.637 318.956 264.58 318.648 264.467L313.119 262.447C312.499 262.218 311.983 261.78 311.666 261.212C311.35 260.644 311.253 259.984 311.394 259.352C312.786 253.256 317.53 232.5 320.127 221.367C323.208 208.161 368.148 205.708 370.059 205.61L370.216 205.602L375.272 211.79C377.099 217.51 376.52 221.971 373.551 225.051C364.888 234.035 339.025 228.46 335.941 227.755L322.194 262.907C321.994 263.416 321.639 263.854 321.178 264.163C320.717 264.472 320.171 264.637 319.611 264.637V264.637Z" fill="#2F2E41"/>
<path d="M303.616 178.641C303.819 178.906 304.001 179.186 304.159 179.478L334.39 182.581L338.742 176.769L348.604 182.02L340.057 196.125L302.981 186.916C302.046 187.804 300.855 188.394 299.567 188.607C298.279 188.82 296.955 188.646 295.771 188.108C294.587 187.57 293.599 186.694 292.939 185.596C292.279 184.498 291.977 183.23 292.075 181.961C292.172 180.692 292.664 179.482 293.484 178.491C294.305 177.501 295.416 176.778 296.669 176.417C297.921 176.057 299.257 176.077 300.498 176.474C301.74 176.871 302.827 177.627 303.616 178.641V178.641Z" fill="#FFB8B8"/>
<path d="M373.869 214.159C373.432 214.157 373.001 214.055 372.613 213.86C366.567 210.865 354.796 205.68 343.881 204.594C343.507 204.559 343.145 204.447 342.819 204.267C342.492 204.087 342.207 203.843 341.983 203.55C341.755 203.253 341.592 202.914 341.504 202.553C341.416 202.193 341.405 201.818 341.472 201.453C342.457 196.142 344.717 182.616 344.426 171.776C344.34 168.443 345.421 165.181 347.491 162.526C349.561 159.87 352.497 157.98 355.816 157.166V157.166C357.814 156.653 359.843 156.263 361.892 155.999C364.246 155.709 366.638 155.959 368.875 156.731C371.113 157.503 373.133 158.775 374.775 160.444C376.418 162.114 377.635 164.135 378.332 166.345C379.028 168.555 379.183 170.894 378.784 173.173C376.838 184.407 374.875 200.097 376.581 211.05C376.659 211.54 376.597 212.043 376.4 212.501C376.203 212.959 375.88 213.356 375.466 213.646C375.003 213.977 374.444 214.157 373.869 214.159V214.159Z" fill="#CAE9FF"/>
<path d="M344.985 185.586C344.608 185.586 344.236 185.51 343.89 185.363L336.015 182.042C335.344 181.759 334.816 181.227 334.547 180.565C334.278 179.903 334.29 179.163 334.579 178.509L340.667 164.81C341.034 163.982 341.565 163.232 342.23 162.604C342.895 161.976 343.68 161.481 344.541 161.149C345.402 160.817 346.322 160.653 347.248 160.667C348.174 160.681 349.088 160.872 349.938 161.231C350.788 161.589 351.557 162.107 352.202 162.755C352.846 163.403 353.353 164.169 353.693 165.008C354.034 165.847 354.201 166.743 354.186 167.645C354.171 168.547 353.973 169.438 353.605 170.265L347.517 183.964C347.303 184.445 346.949 184.855 346.5 185.143C346.05 185.431 345.523 185.585 344.985 185.586V185.586Z" fill="#CAE9FF"/>
<path d="M363.012 151.339C371.327 151.339 378.067 144.773 378.067 136.673C378.067 128.574 371.327 122.008 363.012 122.008C354.697 122.008 347.957 128.574 347.957 136.673C347.957 144.773 354.697 151.339 363.012 151.339Z" fill="#FFB8B8"/>
<path d="M347.686 129.468C354.817 133.708 362.857 136.289 371.178 137.009L368.702 134.118C370.505 134.768 372.402 135.135 374.323 135.206C376.242 135.176 378.252 134.457 379.341 132.918C379.827 132.152 380.116 131.284 380.182 130.387C380.249 129.49 380.092 128.59 379.725 127.765C378.97 126.118 377.795 124.688 376.313 123.609C373.685 121.583 370.583 120.223 367.284 119.649C363.985 119.074 360.592 119.304 357.406 120.317C355.221 120.953 353.264 122.176 351.76 123.846C350.332 125.561 347.585 127.089 348.316 129.179L347.686 129.468Z" fill="#2F2E41"/>
<path d="M365.543 117.633C360.795 112.942 355.049 109.322 348.71 107.028C344.641 105.56 340.211 104.653 335.957 105.487C331.703 106.321 327.68 109.188 326.493 113.254C325.523 116.579 326.525 120.159 328.031 123.288C329.537 126.418 331.548 129.321 332.766 132.567C334.008 135.88 334.382 139.443 333.853 142.932C333.324 146.421 331.908 149.726 329.735 152.548C327.562 155.369 324.7 157.617 321.409 159.087C318.118 160.557 314.502 161.204 310.89 160.967C315.07 161.513 318.923 163.427 323.008 164.445C327.094 165.464 331.916 165.395 334.953 162.544C338.165 159.527 338.229 154.622 338.074 150.277L337.381 130.904C337.264 127.611 337.163 124.212 338.382 121.138C339.602 118.064 342.499 115.373 345.882 115.401C348.445 115.422 350.714 116.935 352.77 118.427C354.826 119.919 357.003 121.511 359.556 121.733C362.11 121.954 365.026 120.114 364.834 117.623" fill="#2F2E41"/>
<path d="M295.565 167.84L330.229 168.637L335.251 204.736L303.238 205.436L295.565 167.84Z" fill="#E6E6E6"/>
<path d="M332.425 177.447C332.628 177.712 332.81 177.992 332.968 178.284L363.199 181.387L367.55 175.575L377.413 180.826L368.866 194.93L331.79 185.721C330.855 186.61 329.664 187.2 328.376 187.413C327.088 187.626 325.764 187.452 324.58 186.914C323.396 186.376 322.408 185.5 321.748 184.402C321.087 183.303 320.786 182.036 320.883 180.767C320.981 179.497 321.473 178.287 322.293 177.297C323.114 176.307 324.224 175.584 325.477 175.223C326.73 174.863 328.066 174.883 329.307 175.28C330.548 175.677 331.636 176.433 332.425 177.447V177.447Z" fill="#FFB8B8"/>
<path d="M373.794 186.183C373.417 186.183 373.045 186.107 372.699 185.96L364.824 182.64C364.153 182.356 363.626 181.824 363.356 181.162C363.087 180.5 363.099 179.761 363.388 179.106L369.476 165.407C369.843 164.579 370.374 163.829 371.039 163.201C371.704 162.573 372.489 162.078 373.35 161.746C374.211 161.414 375.131 161.25 376.057 161.264C376.983 161.278 377.897 161.47 378.747 161.828C379.597 162.186 380.366 162.704 381.011 163.352C381.655 164.001 382.162 164.766 382.502 165.605C382.843 166.444 383.01 167.34 382.995 168.242C382.98 169.144 382.782 170.035 382.414 170.862L376.326 184.562C376.112 185.043 375.758 185.452 375.309 185.74C374.859 186.028 374.333 186.182 373.794 186.183V186.183Z" fill="#CAE9FF"/>
<path d="M302.536 185.99H58.5799C57.5232 185.99 56.5098 186.398 55.7627 187.126C55.0155 187.854 54.5957 188.841 54.5957 189.871C54.5957 190.9 55.0155 191.887 55.7627 192.615C56.5098 193.343 57.5232 193.752 58.5799 193.752H65.6289V278.243C65.6289 279.273 66.0486 280.26 66.7958 280.988C67.543 281.716 68.5564 282.124 69.6131 282.124C70.6698 282.124 71.6832 281.716 72.4303 280.988C73.1775 280.26 73.5973 279.273 73.5973 278.243V201.21L118.264 280.075C118.793 280.964 119.663 281.613 120.683 281.878C121.703 282.143 122.789 282.003 123.702 281.489C124.616 280.975 125.284 280.129 125.558 279.136C125.832 278.143 125.691 277.085 125.165 276.194L78.4725 193.752H291.809V193.802L245.145 276.194C244.617 277.085 244.474 278.145 244.747 279.139C245.021 280.133 245.689 280.981 246.604 281.496C247.519 282.01 248.606 282.15 249.627 281.883C250.647 281.617 251.518 280.967 252.046 280.075L291.809 209.868V278.243C291.809 279.273 292.229 280.26 292.976 280.988C293.723 281.716 294.736 282.124 295.793 282.124C296.85 282.124 297.863 281.716 298.61 280.988C299.358 280.26 299.777 279.273 299.777 278.243V195.799L300.937 193.752H302.536C303.592 193.752 304.606 193.343 305.353 192.615C306.1 191.887 306.52 190.9 306.52 189.871C306.52 188.841 306.1 187.854 305.353 187.126C304.606 186.398 303.592 185.99 302.536 185.99V185.99Z" fill="#3F3D56"/>
<path d="M453.27 283H0.729921C0.536723 282.999 0.351634 282.924 0.21522 282.791C0.0788057 282.658 0.00219727 282.477 0.00219727 282.289C0.00219727 282.101 0.0788057 281.92 0.21522 281.787C0.351634 281.654 0.536723 281.579 0.729921 281.578H453.27C453.464 281.578 453.649 281.653 453.786 281.786C453.923 281.92 454 282.1 454 282.289C454 282.478 453.923 282.658 453.786 282.792C453.649 282.925 453.464 283 453.27 283V283Z" fill="#3F3D56"/>
</g>
<defs>
<clipPath id="clip0">
<rect width="454" height="283" fill="white"/>
</clipPath>
</defs>
</svg>
