<svg width="299" height="273" viewBox="0 0 299 273" fill="none" xmlns="http://www.w3.org/2000/svg">
<path d="M256.414 102.167C240.852 43.8422 187.08 1.74007 123.964 0.0513959C90.5965 -0.841365 55.4844 9.70638 29.9202 46.6168C-15.7785 112.598 32.7285 158.193 66.5464 179.859C82.8845 190.347 97.606 202.959 110.285 217.328C133.127 243.164 177.072 275.269 229.408 224.965C267.341 188.506 266.78 141.016 256.414 102.167Z" fill="#F2F2F2"/>
<path d="M298.654 232.052C298.654 246.369 233.106 273 150.539 273C67.9728 273 0 248.02 0 233.703C0 219.387 67.9728 221.155 150.539 221.155C233.106 221.155 298.654 217.736 298.654 232.052Z" fill="#3F3D56"/>
<path opacity="0.1" d="M298.654 232.052C298.654 246.369 233.106 273 150.539 273C67.9728 273 0 248.02 0 233.703C0 219.387 67.9728 221.155 150.539 221.155C233.106 221.155 298.654 217.736 298.654 232.052Z" fill="black"/>
<path d="M149.5 259.461C232.067 259.461 299 247.855 299 233.538C299 219.222 232.067 207.616 149.5 207.616C66.9334 207.616 0 219.222 0 233.538C0 247.855 66.9334 259.461 149.5 259.461Z" fill="#3F3D56"/>
<path d="M206.098 145.377V214.705L218.265 233.604L219.191 235.041H267.199L268.168 145.377H206.098Z" fill="#2F2E41"/>
<path opacity="0.1" d="M206.098 145.377V214.705L218.265 233.604L219.012 145.377H206.098Z" fill="black"/>
<path d="M90.2017 143.528V212.856L78.0349 231.755L77.1088 233.193H29.1011L28.1313 143.528H90.2017Z" fill="#2F2E41"/>
<path opacity="0.1" d="M90.2017 143.528V212.856L78.0348 231.755L77.2878 143.528H90.2017Z" fill="black"/>
<path d="M282.716 142.141V146.301H21.8274V140.293L46.0734 128.276H261.379L282.716 142.141Z" fill="#2F2E41"/>
<path opacity="0.1" d="M282.716 142.141V146.301H21.8274V140.292L282.716 142.141Z" fill="black"/>
<path opacity="0.1" d="M59.1663 162.94H47.5282L42.6791 159.704H64.5005L59.1663 162.94Z" fill="black"/>
<path opacity="0.1" d="M59.1663 176.343H47.5282L42.6791 173.108H64.5005L59.1663 176.343Z" fill="black"/>
<path opacity="0.1" d="M59.1663 195.293H47.5282L42.6791 192.058H64.5005L59.1663 195.293Z" fill="black"/>
<path opacity="0.1" d="M59.1663 214.243H47.5282L42.6791 211.008H64.5005L59.1663 214.243Z" fill="black"/>
<path opacity="0.1" d="M237.133 164.788H248.771L253.621 161.553H231.799L237.133 164.788Z" fill="black"/>
<path opacity="0.1" d="M237.133 178.192H248.771L253.621 174.957H231.799L237.133 178.192Z" fill="black"/>
<path opacity="0.1" d="M237.133 197.142H248.771L253.621 193.906H231.799L237.133 197.142Z" fill="black"/>
<path opacity="0.1" d="M237.133 216.092H248.771L253.621 212.856H231.799L237.133 216.092Z" fill="black"/>
<path d="M184.499 116.71L182.881 126.553C182.881 126.553 174.918 130.585 180.517 130.704C186.116 130.822 212.494 130.704 212.494 130.704C212.494 130.704 217.596 130.704 209.508 126.434L207.89 116.117L184.499 116.71Z" fill="#3F3D56"/>
<path opacity="0.1" d="M179.391 130.597C180.478 129.759 181.647 129.021 182.881 128.395L184.499 118.551L207.89 118.572L209.508 128.276C210.837 128.93 212.09 129.716 213.246 130.62C214.285 130.394 215.42 129.555 209.508 126.434L207.89 116.117L184.499 116.71L182.881 126.553C182.881 126.553 176.19 129.941 179.391 130.597Z" fill="black"/>
<path d="M245.059 48.104H147.081C145.035 48.104 143.376 49.6852 143.376 51.6357V114.542C143.376 116.492 145.035 118.073 147.081 118.073H245.059C247.105 118.073 248.764 116.492 248.764 114.542V51.6357C248.764 49.6852 247.105 48.104 245.059 48.104Z" fill="#3F3D56"/>
<path d="M245.218 51.8398H146.922V104.257H245.218V51.8398Z" fill="#F2F2F2"/>
<path d="M196.07 50.7726C196.413 50.7726 196.692 50.5071 196.692 50.1796C196.692 49.8521 196.413 49.5867 196.07 49.5867C195.726 49.5867 195.448 49.8521 195.448 50.1796C195.448 50.5071 195.726 50.7726 196.07 50.7726Z" fill="#F2F2F2"/>
<path d="M248.764 108.408V114.542C248.764 115.006 248.668 115.465 248.482 115.893C248.296 116.322 248.023 116.711 247.679 117.039C247.335 117.367 246.926 117.627 246.477 117.805C246.027 117.982 245.545 118.073 245.059 118.073H147.081C146.595 118.073 146.113 117.982 145.663 117.805C145.214 117.627 144.805 117.367 144.461 117.039C144.117 116.711 143.844 116.322 143.658 115.893C143.472 115.465 143.376 115.006 143.376 114.542V108.408H248.764Z" fill="#3F3D56"/>
<path d="M196.07 115.524C197.376 115.524 198.434 114.515 198.434 113.27C198.434 112.026 197.376 111.017 196.07 111.017C194.764 111.017 193.706 112.026 193.706 113.27C193.706 114.515 194.764 115.524 196.07 115.524Z" fill="#F2F2F2"/>
<path d="M192.386 137.107V138.293H125.445V137.345L125.537 137.107L127.187 132.838H191.017L192.386 137.107Z" fill="#3F3D56"/>
<path d="M218.147 135.946C218.025 136.443 217.565 136.967 216.524 137.463C212.792 139.242 205.202 136.989 205.202 136.989C205.202 136.989 199.354 136.04 199.354 133.549C199.518 133.442 199.689 133.345 199.866 133.259C201.436 132.468 206.639 130.515 215.866 133.342C216.545 133.545 217.152 133.924 217.619 134.437C217.826 134.631 217.982 134.869 218.074 135.131C218.165 135.394 218.19 135.673 218.147 135.946V135.946Z" fill="#3F3D56"/>
<path opacity="0.1" d="M218.147 135.946C213.578 137.615 209.506 137.739 205.326 134.973C203.219 133.578 201.304 133.233 199.867 133.259C201.436 132.468 206.64 130.515 215.866 133.342C216.546 133.545 217.153 133.924 217.62 134.437C217.826 134.631 217.982 134.869 218.074 135.131C218.166 135.394 218.191 135.673 218.147 135.946V135.946Z" fill="black"/>
<path d="M212.419 134.973C213.312 134.973 214.036 134.76 214.036 134.498C214.036 134.236 213.312 134.024 212.419 134.024C211.525 134.024 210.801 134.236 210.801 134.498C210.801 134.76 211.525 134.973 212.419 134.973Z" fill="#F2F2F2"/>
<path opacity="0.1" d="M192.386 137.107V138.293H125.445V137.345L125.537 137.107H192.386Z" fill="black"/>
<path d="M230.64 76.5958C230.112 76.0924 223.334 67.9543 222.19 66.6119C220.957 65.2696 220.429 65.5213 219.637 65.6051C218.845 65.689 210.307 67.1153 209.338 67.1992C208.37 67.367 207.754 67.7026 208.37 68.5416C208.898 69.2966 214.532 76.8474 215.764 78.6093L193.318 83.7271L175.537 55.2857C174.833 54.2789 174.657 53.9434 173.072 54.0272C171.488 54.1111 159.076 55.1179 158.196 55.1179C157.316 55.2018 156.348 55.5374 157.228 57.5509C158.108 59.5645 172.192 88.4253 172.544 89.2643C172.896 90.1033 173.952 91.4456 176.329 90.9423C178.794 90.355 187.244 88.2575 191.909 87.083C194.374 91.2779 199.303 99.8354 200.272 101.094C201.504 102.772 202.384 102.436 204.233 101.933C205.729 101.513 227.295 94.1304 228.264 93.7109C229.232 93.2914 229.848 93.0397 229.144 92.1168C228.616 91.4456 222.982 84.1465 219.989 80.3711C222.014 79.8677 229.32 78.022 230.112 77.7703C230.992 77.5186 231.168 77.0991 230.64 76.5957V76.5958ZM189.885 84.5661C189.621 84.6499 177.033 87.5025 176.417 87.6703C175.713 87.8381 175.713 87.7542 175.713 87.5025C175.537 87.2508 160.749 58.0544 160.485 57.7188C160.309 57.3832 160.309 57.0476 160.485 57.0476C160.661 57.0476 172.368 56.0408 172.72 56.0408C173.16 56.0408 173.072 56.1247 173.248 56.3764C173.248 56.3764 189.709 83.4754 189.973 83.8949C190.325 84.3144 190.149 84.4821 189.885 84.566V84.5661ZM225.271 90.8584C225.447 91.194 225.711 91.3618 225.007 91.5296C224.39 91.7813 203.793 98.4092 203.353 98.577C202.912 98.7448 202.648 98.8287 202.12 98.0736C201.592 97.3185 194.902 86.3279 194.902 86.3279L216.82 80.8745C217.348 80.7067 217.525 80.6228 217.877 81.1262C218.229 81.7135 225.095 90.6067 225.271 90.8584V90.8584ZM226.679 76.0924C226.151 76.1763 218.141 78.1059 218.141 78.1059L211.539 69.5483C211.363 69.2967 211.187 69.045 211.627 68.9611C212.067 68.8772 219.549 67.6187 219.901 67.5348C220.253 67.4509 220.517 67.367 220.957 67.9543C221.398 68.4577 227.031 75.3373 227.295 75.589C227.559 75.8407 227.207 76.0085 226.679 76.0924V76.0924Z" fill="#FB503B"/>
<path d="M136.729 64.1097C144.047 64.1097 149.98 58.4551 149.98 51.4798C149.98 44.5045 144.047 38.8499 136.729 38.8499C129.411 38.8499 123.478 44.5045 123.478 51.4798C123.478 58.4551 129.411 64.1097 136.729 64.1097Z" fill="#FFB9B9"/>
<path d="M126.965 57.7949V77.7369H148.585C148.585 77.7369 145.796 61.1186 147.19 56.1331L126.965 57.7949Z" fill="#FFB9B9"/>
<path d="M169.857 84.7167C169.857 84.7167 149.283 75.0781 149.283 74.4133C149.283 73.7486 147.19 69.4278 145.795 69.4278C144.401 69.4278 132.544 65.7718 125.919 71.0897L125.221 75.4104L99.7651 91.364L106.739 115.627C106.739 115.627 111.273 120.28 109.878 123.604C108.483 126.927 110.924 143.878 110.924 143.878L165.672 142.216V119.615C165.672 119.615 167.416 114.297 168.462 112.635C169.508 110.974 168.462 105.988 168.462 105.988L176.831 96.0171C176.831 96.0171 175.785 86.7109 169.857 84.7167Z" fill="#D0CDE1"/>
<path opacity="0.1" d="M100.637 99.507L102.206 91.364C102.206 91.364 93.1396 128.921 94.1857 133.242C95.2319 137.563 102.904 144.21 103.95 144.543C104.996 144.875 114.76 115.959 114.76 115.959L100.637 99.507Z" fill="black"/>
<path d="M105.693 90.3667L99.7651 91.3638C99.7651 91.3638 90.6985 128.921 91.7447 133.242C92.7908 137.563 100.463 144.21 101.509 144.542C102.555 144.875 112.319 115.959 112.319 115.959L105.693 90.3667Z" fill="#D0CDE1"/>
<path opacity="0.1" d="M171.775 101.501L174.739 96.0171C174.739 96.0171 178.924 133.575 176.134 137.231C173.344 140.887 162.309 142.255 162.309 142.255L162.185 114.962L171.775 101.501Z" fill="black"/>
<path d="M172.298 91.6963L176.831 96.0171C176.831 96.0171 181.016 133.574 178.226 137.231C175.436 140.887 164.401 142.255 164.401 142.255L164.277 114.962L172.298 91.6963Z" fill="#D0CDE1"/>
<path d="M104.647 148.863C104.647 148.863 94.5344 145.207 92.7908 152.187C91.0472 159.167 96.9754 190.409 96.9754 190.409C96.9754 190.409 100.811 214.007 103.252 214.672C105.693 215.337 116.503 215.669 118.247 212.678C119.991 209.686 113.016 179.109 113.016 179.109L153.467 178.444C153.467 178.444 151.026 205.033 149.631 207.36C148.236 209.686 148.236 217.663 149.631 217.663C151.026 217.663 166.37 216.998 167.416 215.004C168.462 213.01 174.39 168.141 174.39 168.141C174.39 168.141 179.272 152.519 173.693 153.516C168.113 154.513 104.647 148.863 104.647 148.863Z" fill="#3F3D56"/>
<path d="M164.277 213.675C164.277 213.675 167.765 211.348 169.508 213.675C171.252 216.001 171.949 218.66 164.277 222.649C156.606 226.637 150.677 225.64 150.677 224.975V215.337L164.277 213.675Z" fill="#2F2E41"/>
<path d="M103.95 212.678C103.95 212.678 100.463 210.351 98.719 212.678C96.9754 215.004 96.278 217.663 103.95 221.652C111.621 225.64 117.55 224.643 117.55 223.978V214.339L103.95 212.678Z" fill="#2F2E41"/>
<path d="M136.815 35.5548C135.495 35.5111 134.177 35.6901 132.923 36.0835C131.95 36.4562 131.021 36.9248 130.15 37.4817L124.3 40.9491C123.803 41.154 123.381 41.4945 123.088 41.9276C122.794 42.3607 122.641 42.8671 122.649 43.3829L121.918 48.601C121.733 49.9178 121.563 51.3261 122.182 52.5167C122.698 53.5104 123.682 54.1904 124.492 54.9869C125.787 56.2668 126.659 57.8815 126.999 59.6301C127.417 61.8088 127.15 64.4324 128.958 65.8227C129.938 66.5756 131.273 66.718 132.529 66.788C135.964 66.9791 139.41 66.8527 142.819 66.4105C143.361 66.3718 143.89 66.2306 144.374 65.9952C144.989 65.6485 145.376 65.0365 145.738 64.4493C147.044 62.3294 148.391 60.0742 148.377 57.6157C148.37 56.3995 148.043 55.0932 148.656 54.0263C148.98 53.5728 149.331 53.1378 149.708 52.7235C150.467 51.7075 150.615 50.4021 150.738 49.1605C151.133 45.195 150.72 42.1772 147.654 39.3838C144.792 36.7762 140.719 35.5788 136.815 35.5548Z" fill="#2F2E41"/>
<path d="M104.264 188.129L92.6263 244.516H98.4452L109.599 189.054L104.264 188.129Z" fill="#2F2E41"/>
<path d="M141.603 192.751L148.877 257.458H153.727L149.362 190.902L141.603 192.751Z" fill="#2F2E41"/>
<path d="M161.485 190.902L171.669 233.886H176.518L166.82 189.978L161.485 190.902Z" fill="#2F2E41"/>
<path d="M122.691 190.902L121.237 225.104H125.116L128.026 190.902H122.691Z" fill="#2F2E41"/>
<path d="M96.0207 182.121C96.0207 182.121 88.2619 132.666 110.083 131.28C131.905 129.893 162.94 131.28 162.94 131.28C162.94 131.28 180.882 129.893 175.548 182.121C175.548 182.121 180.397 197.373 136.754 195.986C93.1111 194.6 96.0207 182.121 96.0207 182.121Z" fill="#CAE9FF"/>
<path d="M294.842 202.316C294.842 210.94 289.463 213.951 282.828 213.951C276.193 213.951 270.814 210.94 270.814 202.316C270.814 193.692 282.828 182.721 282.828 182.721C282.828 182.721 294.842 193.692 294.842 202.316Z" fill="#CAE9FF"/>
<path d="M282.514 205.414L287.634 196.486L282.533 204.282L282.588 201.037L286.117 194.577L282.603 200.178L282.702 194.341L286.482 189.199L282.718 193.424L282.78 182.721L282.406 196.282L278.579 190.699L282.36 197.427L282.002 203.945L281.991 203.772L277.562 197.873L281.978 204.383L281.933 205.199L281.925 205.211L281.929 205.278L281.021 213.977H282.234L282.38 213.274L286.785 206.78L282.39 212.632L282.514 205.414Z" fill="#3F3D56"/>
<path d="M290.501 232.658H276.178L272.476 212.717H293.398L290.501 232.658Z" fill="#2F2E41"/>
<path d="M80.0336 97.8452H50.2375V131.141H80.0336V97.8452Z" fill="#3F3D56"/>
<path d="M75.4101 103.012H54.8611V125.974H75.4101V103.012Z" fill="#F2F2F2"/>
<path d="M67.1951 107.888L65.1083 111.333L63.0214 107.888H56.0729L65.1083 122.805L74.1437 107.888H67.1951Z" fill="#4DBA87"/>
<path d="M67.1952 107.888L65.1084 111.333L63.0216 107.888H59.6871L65.1084 116.838L70.5296 107.888H67.1952Z" fill="#435466"/>
</svg>
