<svg width="420" height="274" viewBox="0 0 420 274" fill="none" xmlns="http://www.w3.org/2000/svg">
<g clip-path="url(#clip0)">
<path d="M419.393 271.899H0.606936C0.445967 271.899 0.29159 271.841 0.177767 271.738C0.0639444 271.635 0 271.496 0 271.351C0 271.205 0.0639444 271.066 0.177767 270.963C0.29159 270.86 0.445967 270.802 0.606936 270.802H419.393C419.554 270.802 419.708 270.86 419.822 270.963C419.936 271.066 420 271.205 420 271.351C420 271.496 419.936 271.635 419.822 271.738C419.708 271.841 419.554 271.899 419.393 271.899Z" fill="#CCCCCC"/>
<path d="M377.942 176.303H131.526C130.479 176.303 129.476 176.678 128.736 177.347C127.996 178.015 127.581 178.921 127.581 179.866C127.581 180.811 127.996 181.717 128.736 182.385C129.476 183.053 130.479 183.429 131.526 183.429H138.505V268.664C138.505 269.609 138.921 270.515 139.661 271.183C140.401 271.851 141.404 272.227 142.451 272.227C143.497 272.227 144.5 271.851 145.24 271.183C145.98 270.515 146.396 269.609 146.396 268.664L146.456 183.429H362.465V268.664C362.465 269.609 362.881 270.515 363.62 271.183C364.36 271.851 365.364 272.227 366.41 272.227C367.456 272.227 368.46 271.851 369.2 271.183C369.939 270.515 370.355 269.609 370.355 268.664V185.307L371.503 183.429H377.942C378.988 183.429 379.992 183.053 380.731 182.385C381.471 181.717 381.887 180.811 381.887 179.866C381.887 178.921 381.471 178.015 380.731 177.347C379.992 176.678 378.988 176.303 377.942 176.303V176.303Z" fill="#CCCCCC"/>
<path d="M268.141 178.168H193.499C192.053 178.166 190.668 177.647 189.646 176.724C188.624 175.801 188.049 174.55 188.047 173.244V136.131C188.049 134.825 188.624 133.574 189.646 132.651C190.668 131.728 192.053 131.209 193.499 131.207H268.141C269.586 131.209 270.972 131.728 271.994 132.651C273.016 133.574 273.591 134.825 273.592 136.131V173.244C273.591 174.55 273.016 175.801 271.994 176.724C270.972 177.647 269.586 178.166 268.141 178.168V178.168Z" fill="#3F3D56"/>
<path d="M268.141 134.996H193.499C193.166 134.997 192.847 135.117 192.612 135.329C192.376 135.542 192.244 135.83 192.243 136.131V173.245C192.244 173.546 192.376 173.834 192.612 174.047C192.847 174.259 193.166 174.379 193.499 174.38H268.141C268.474 174.379 268.793 174.259 269.028 174.047C269.264 173.834 269.396 173.546 269.397 173.245V136.131C269.396 135.83 269.264 135.542 269.028 135.329C268.793 135.117 268.474 134.997 268.141 134.996V134.996Z" fill="white"/>
<path d="M237.186 161.273C237.186 161.273 228.25 159.414 223.336 162.823C218.421 166.232 229.591 173.98 229.591 173.98L237.186 161.273Z" fill="#2F2E41"/>
<path d="M231.257 157.76C235.912 157.76 239.686 154.352 239.686 150.148C239.686 145.944 235.912 142.536 231.257 142.536C226.602 142.536 222.829 145.944 222.829 150.148C222.829 154.352 226.602 157.76 231.257 157.76Z" fill="#A0616A"/>
<path d="M224.74 139.462C225.302 138.601 226.117 137.896 227.094 137.426C228.072 136.957 229.174 136.74 230.279 136.8C231.435 136.931 232.563 137.217 233.626 137.647L239.136 139.588C240.562 140.09 242.124 140.705 242.742 141.97C243.317 143.143 242.888 144.498 242.455 145.719L240.393 151.526C240.165 150.212 239.773 148.925 239.225 147.69C238.668 146.447 237.662 145.411 236.37 144.75C234.938 144.087 233.251 144.101 231.645 144.171C229.369 144.27 226.895 144.531 225.278 145.98C224.42 146.804 223.838 147.83 223.601 148.94C223.366 150.044 223.249 151.166 223.249 152.29C222.316 150.841 221.53 149.32 220.9 147.743C220.383 146.569 220.088 145.325 220.028 144.062C219.974 142.789 220.441 141.543 221.341 140.561C221.798 140.082 222.394 139.727 223.063 139.537C223.731 139.347 224.444 139.33 225.123 139.487L224.74 139.462Z" fill="#2F2E41"/>
<path d="M251.383 167.874C251.303 167.616 251.142 167.386 250.919 167.212C250.695 167.037 250.419 166.926 250.126 166.892C250.107 166.88 250.087 166.869 250.066 166.859L237.483 160.491C237.124 160.309 236.701 160.26 236.302 160.352C235.903 160.445 235.559 160.673 235.341 160.989L231.9 166.021L226.717 161.34L226.635 161.265C226.369 161.025 226.017 160.877 225.643 160.848C225.268 160.818 224.893 160.909 224.585 161.103L214.244 167.643C214.226 167.643 214.208 167.649 214.19 167.649C213.695 167.723 213.243 167.948 212.908 168.286C212.574 168.624 212.377 169.054 212.351 169.507L212.083 174.38H253.379L251.383 167.874Z" fill="#CAE9FF"/>
<path d="M274.431 173.623H266.463C266.463 173.422 266.375 173.229 266.218 173.087C266.061 172.945 265.847 172.865 265.625 172.865H263.109C262.886 172.865 262.673 172.945 262.516 173.087C262.358 173.229 262.27 173.422 262.27 173.623H259.754C259.754 173.422 259.666 173.229 259.508 173.087C259.351 172.945 259.138 172.865 258.915 172.865H256.399C256.177 172.865 255.964 172.945 255.806 173.087C255.649 173.229 255.561 173.422 255.561 173.623H253.045C253.045 173.422 252.956 173.229 252.799 173.087C252.642 172.945 252.428 172.865 252.206 172.865H249.69C249.468 172.865 249.254 172.945 249.097 173.087C248.94 173.229 248.851 173.422 248.851 173.623H246.335C246.335 173.422 246.247 173.229 246.09 173.087C245.932 172.945 245.719 172.865 245.497 172.865H242.981C242.758 172.865 242.545 172.945 242.388 173.087C242.23 173.229 242.142 173.422 242.142 173.623H239.626C239.626 173.422 239.538 173.229 239.38 173.087C239.223 172.945 239.01 172.865 238.787 172.865H236.271C236.049 172.865 235.835 172.945 235.678 173.087C235.521 173.229 235.433 173.422 235.433 173.623H232.916C232.916 173.422 232.828 173.229 232.671 173.087C232.514 172.945 232.3 172.865 232.078 172.865H229.562C229.339 172.865 229.126 172.945 228.969 173.087C228.811 173.229 228.723 173.422 228.723 173.623H226.207C226.207 173.422 226.119 173.229 225.961 173.087C225.804 172.945 225.591 172.865 225.368 172.865H222.852C222.63 172.865 222.417 172.945 222.259 173.087C222.102 173.229 222.014 173.422 222.014 173.623H219.498C219.498 173.422 219.409 173.229 219.252 173.087C219.095 172.945 218.881 172.865 218.659 172.865H216.143C215.921 172.865 215.707 172.945 215.55 173.087C215.393 173.229 215.304 173.422 215.304 173.623H212.788C212.788 173.422 212.7 173.229 212.543 173.087C212.385 172.945 212.172 172.865 211.95 172.865H209.434C209.211 172.865 208.998 172.945 208.841 173.087C208.683 173.229 208.595 173.422 208.595 173.623H206.079C206.079 173.422 205.99 173.229 205.833 173.087C205.676 172.945 205.463 172.865 205.24 172.865H202.724C202.502 172.865 202.288 172.945 202.131 173.087C201.974 173.229 201.885 173.422 201.885 173.623H199.369C199.369 173.422 199.281 173.229 199.124 173.087C198.967 172.945 198.753 172.865 198.531 172.865H196.015C195.792 172.865 195.579 172.945 195.422 173.087C195.264 173.229 195.176 173.422 195.176 173.623H187.209C186.542 173.624 185.903 173.864 185.432 174.29C184.961 174.716 184.697 175.293 184.697 175.895C184.697 176.497 184.961 177.075 185.432 177.501C185.903 177.927 186.542 178.166 187.209 178.167H274.431C275.098 178.167 275.738 177.928 276.21 177.502C276.682 177.076 276.947 176.498 276.947 175.895C276.947 175.293 276.682 174.715 276.21 174.288C275.738 173.862 275.098 173.623 274.431 173.623V173.623Z" fill="#3F3D56"/>
<path d="M174.239 160.427V175.515H132.383C131.262 175.55 130.144 175.381 129.096 175.018C128.049 174.655 127.093 174.105 126.286 173.401C125.479 172.697 124.837 171.853 124.398 170.92C123.96 169.987 123.734 168.984 123.734 167.971C123.734 166.958 123.96 165.955 124.398 165.022C124.837 164.089 125.479 163.245 126.286 162.541C127.093 161.837 128.049 161.287 129.096 160.924C130.144 160.561 131.262 160.392 132.383 160.427H174.239Z" fill="#F2F2F2"/>
<path d="M175.267 175.399C175.267 175.553 175.199 175.701 175.078 175.809C174.958 175.918 174.795 175.979 174.624 175.979H131.637C129.303 175.979 127.064 175.142 125.413 173.651C123.762 172.16 122.834 170.138 122.834 168.029C122.834 165.921 123.762 163.899 125.413 162.408C127.064 160.917 129.303 160.079 131.637 160.079H174.624C174.795 160.079 174.958 160.14 175.079 160.249C175.199 160.358 175.267 160.505 175.267 160.659C175.267 160.813 175.199 160.961 175.079 161.07C174.958 161.179 174.795 161.24 174.624 161.24H131.637C129.645 161.241 127.734 161.957 126.326 163.23C124.917 164.504 124.126 166.23 124.126 168.029C124.126 169.829 124.917 171.555 126.326 172.828C127.734 174.101 129.645 174.817 131.637 174.819H174.624C174.795 174.819 174.958 174.88 175.078 174.989C175.199 175.098 175.267 175.245 175.267 175.399V175.399Z" fill="#CAE9FF"/>
<path d="M174.239 163.909H129.26C129.243 163.909 129.226 163.906 129.211 163.901C129.195 163.895 129.181 163.886 129.169 163.875C129.157 163.865 129.147 163.852 129.14 163.838C129.134 163.824 129.131 163.808 129.131 163.793C129.131 163.778 129.134 163.763 129.14 163.748C129.147 163.734 129.157 163.722 129.169 163.711C129.181 163.7 129.195 163.691 129.211 163.686C129.226 163.68 129.243 163.677 129.26 163.677H174.239C174.273 163.677 174.305 163.69 174.329 163.711C174.353 163.733 174.366 163.762 174.366 163.793C174.366 163.824 174.353 163.853 174.329 163.875C174.305 163.897 174.273 163.909 174.239 163.909V163.909Z" fill="#CCCCCC"/>
<path d="M174.239 166.695H129.26C129.243 166.695 129.226 166.692 129.211 166.686C129.195 166.68 129.181 166.672 129.169 166.661C129.157 166.65 129.147 166.637 129.14 166.623C129.134 166.609 129.131 166.594 129.131 166.578C129.131 166.563 129.134 166.548 129.14 166.534C129.147 166.52 129.157 166.507 129.169 166.496C129.181 166.485 129.195 166.477 129.211 166.471C129.226 166.465 129.243 166.462 129.26 166.462H174.239C174.273 166.463 174.305 166.475 174.329 166.497C174.353 166.518 174.366 166.548 174.366 166.578C174.366 166.609 174.353 166.638 174.329 166.66C174.305 166.682 174.273 166.694 174.239 166.695V166.695Z" fill="#CCCCCC"/>
<path d="M174.239 169.48H129.26C129.243 169.48 129.226 169.477 129.211 169.471C129.195 169.466 129.181 169.457 129.169 169.446C129.157 169.435 129.147 169.423 129.14 169.408C129.134 169.394 129.131 169.379 129.131 169.364C129.131 169.349 129.134 169.333 129.14 169.319C129.147 169.305 129.157 169.292 129.169 169.282C129.181 169.271 129.195 169.262 129.211 169.256C129.226 169.251 129.243 169.248 129.26 169.248H174.239C174.273 169.248 174.305 169.26 174.329 169.282C174.353 169.304 174.366 169.333 174.366 169.364C174.366 169.395 174.353 169.424 174.329 169.446C174.305 169.467 174.273 169.48 174.239 169.48V169.48Z" fill="#CCCCCC"/>
<path d="M174.239 172.265H129.26C129.243 172.265 129.226 172.263 129.211 172.257C129.195 172.251 129.181 172.242 129.169 172.232C129.157 172.221 129.147 172.208 129.14 172.194C129.134 172.18 129.131 172.165 129.131 172.149C129.131 172.134 129.134 172.119 129.14 172.105C129.147 172.091 129.157 172.078 129.169 172.067C129.181 172.056 129.195 172.048 129.211 172.042C129.226 172.036 129.243 172.033 129.26 172.033H174.239C174.273 172.033 174.305 172.046 174.329 172.067C174.353 172.089 174.366 172.119 174.366 172.149C174.366 172.18 174.353 172.209 174.329 172.231C174.305 172.253 174.273 172.265 174.239 172.265Z" fill="#CCCCCC"/>
<path d="M166.349 144.531V159.619H124.493C123.372 159.654 122.254 159.485 121.206 159.122C120.159 158.759 119.203 158.209 118.396 157.505C117.589 156.801 116.947 155.957 116.508 155.025C116.07 154.092 115.844 153.089 115.844 152.075C115.844 151.062 116.07 150.059 116.508 149.126C116.947 148.193 117.589 147.35 118.396 146.646C119.203 145.942 120.159 145.392 121.206 145.028C122.254 144.665 123.372 144.496 124.493 144.531H166.349Z" fill="#F2F2F2"/>
<path d="M167.377 159.503C167.377 159.657 167.309 159.804 167.188 159.913C167.068 160.022 166.904 160.083 166.734 160.083H123.747C122.591 160.083 121.447 159.878 120.379 159.478C119.311 159.079 118.34 158.493 117.523 157.755C116.705 157.017 116.057 156.14 115.614 155.176C115.172 154.211 114.944 153.177 114.944 152.133C114.944 151.089 115.172 150.055 115.614 149.091C116.057 148.126 116.705 147.25 117.523 146.512C118.34 145.773 119.311 145.188 120.379 144.788C121.447 144.389 122.591 144.183 123.747 144.183H166.734C166.904 144.183 167.068 144.244 167.188 144.353C167.309 144.462 167.377 144.61 167.377 144.763C167.377 144.917 167.309 145.065 167.188 145.174C167.068 145.283 166.904 145.344 166.734 145.344H123.747C121.755 145.345 119.844 146.061 118.436 147.334C117.027 148.608 116.236 150.334 116.236 152.133C116.236 153.933 117.027 155.659 118.436 156.932C119.844 158.205 121.755 158.921 123.747 158.923H166.734C166.904 158.923 167.068 158.984 167.188 159.093C167.309 159.202 167.377 159.349 167.377 159.503V159.503Z" fill="#3F3D56"/>
<path d="M166.349 148.013H121.37C121.353 148.013 121.336 148.01 121.32 148.005C121.305 147.999 121.29 147.99 121.278 147.979C121.266 147.969 121.257 147.956 121.25 147.942C121.244 147.928 121.24 147.912 121.24 147.897C121.24 147.882 121.244 147.867 121.25 147.852C121.257 147.838 121.266 147.826 121.278 147.815C121.29 147.804 121.305 147.795 121.32 147.79C121.336 147.784 121.353 147.781 121.37 147.781H166.349C166.382 147.781 166.415 147.794 166.439 147.815C166.463 147.837 166.476 147.866 166.476 147.897C166.476 147.928 166.463 147.957 166.439 147.979C166.415 148.001 166.382 148.013 166.349 148.013V148.013Z" fill="#CCCCCC"/>
<path d="M166.349 150.799H121.37C121.353 150.799 121.336 150.796 121.32 150.79C121.305 150.784 121.29 150.776 121.278 150.765C121.266 150.754 121.257 150.741 121.25 150.727C121.244 150.713 121.24 150.698 121.24 150.682C121.24 150.667 121.244 150.652 121.25 150.638C121.257 150.624 121.266 150.611 121.278 150.6C121.29 150.589 121.305 150.581 121.32 150.575C121.336 150.569 121.353 150.566 121.37 150.566H166.349C166.382 150.567 166.415 150.579 166.439 150.601C166.463 150.622 166.476 150.652 166.476 150.682C166.476 150.713 166.463 150.743 166.439 150.764C166.415 150.786 166.382 150.798 166.349 150.799V150.799Z" fill="#CCCCCC"/>
<path d="M166.349 153.584H121.37C121.353 153.584 121.336 153.581 121.32 153.576C121.305 153.57 121.29 153.561 121.278 153.55C121.266 153.54 121.257 153.527 121.25 153.513C121.244 153.499 121.24 153.483 121.24 153.468C121.24 153.453 121.244 153.438 121.25 153.424C121.257 153.409 121.266 153.397 121.278 153.386C121.29 153.375 121.305 153.366 121.32 153.361C121.336 153.355 121.353 153.352 121.37 153.352H166.349C166.382 153.352 166.415 153.365 166.439 153.386C166.463 153.408 166.476 153.437 166.476 153.468C166.476 153.499 166.463 153.528 166.439 153.55C166.415 153.572 166.382 153.584 166.349 153.584V153.584Z" fill="#CCCCCC"/>
<path d="M166.349 156.37H121.37C121.353 156.37 121.336 156.367 121.32 156.361C121.305 156.355 121.29 156.347 121.278 156.336C121.266 156.325 121.257 156.312 121.25 156.298C121.244 156.284 121.24 156.269 121.24 156.254C121.24 156.238 121.244 156.223 121.25 156.209C121.257 156.195 121.266 156.182 121.278 156.171C121.29 156.16 121.305 156.152 121.32 156.146C121.336 156.14 121.353 156.137 121.37 156.137H166.349C166.382 156.138 166.415 156.15 166.439 156.172C166.463 156.193 166.476 156.223 166.476 156.254C166.476 156.284 166.463 156.314 166.439 156.335C166.415 156.357 166.382 156.369 166.349 156.37Z" fill="#CCCCCC"/>
<path d="M215.039 229.144V215.989C215.039 215.407 214.784 214.85 214.328 214.439C213.873 214.027 213.255 213.796 212.612 213.796H157.38C156.737 213.796 156.119 214.027 155.664 214.439C155.208 214.85 154.953 215.407 154.953 215.989V229.144H215.039Z" fill="#CCCCCC"/>
<path d="M215.039 234.077H154.953V251.07H215.039V234.077Z" fill="#CCCCCC"/>
<path d="M154.953 256.003V269.158C154.953 269.74 155.208 270.297 155.664 270.708C156.119 271.12 156.737 271.351 157.38 271.351H212.612C213.255 271.351 213.873 271.12 214.328 270.708C214.784 270.297 215.039 269.74 215.039 269.158V256.003H154.953Z" fill="#CCCCCC"/>
<path d="M184.693 223.663C185.698 223.663 186.513 222.927 186.513 222.018C186.513 221.11 185.698 220.374 184.693 220.374C183.687 220.374 182.872 221.11 182.872 222.018C182.872 222.927 183.687 223.663 184.693 223.663Z" fill="white"/>
<path d="M184.693 245.588C185.698 245.588 186.513 244.852 186.513 243.944C186.513 243.036 185.698 242.299 184.693 242.299C183.687 242.299 182.872 243.036 182.872 243.944C182.872 244.852 183.687 245.588 184.693 245.588Z" fill="white"/>
<path d="M184.79 267.049C185.796 267.049 186.611 266.313 186.611 265.405C186.611 264.497 185.796 263.76 184.79 263.76C183.785 263.76 182.969 264.497 182.969 265.405C182.969 266.313 183.785 267.049 184.79 267.049Z" fill="white"/>
<path d="M208.227 198.797V213.885H166.372C165.25 213.92 164.132 213.751 163.085 213.388C162.037 213.024 161.082 212.474 160.274 211.77C159.467 211.066 158.825 210.223 158.387 209.29C157.949 208.357 157.723 207.354 157.723 206.341C157.723 205.327 157.949 204.324 158.387 203.392C158.825 202.459 159.467 201.615 160.274 200.911C161.082 200.207 162.037 199.657 163.085 199.294C164.132 198.931 165.25 198.762 166.372 198.797H208.227Z" fill="#F2F2F2"/>
<path d="M209.255 213.768C209.255 213.922 209.187 214.07 209.067 214.179C208.947 214.288 208.783 214.349 208.613 214.349H165.626C164.469 214.35 163.324 214.145 162.255 213.745C161.186 213.346 160.215 212.761 159.397 212.023C158.578 211.284 157.929 210.407 157.486 209.443C157.044 208.478 156.816 207.443 156.816 206.399C156.816 205.354 157.044 204.32 157.486 203.355C157.929 202.39 158.578 201.513 159.397 200.775C160.215 200.036 161.186 199.451 162.255 199.052C163.324 198.653 164.469 198.448 165.626 198.448H208.613C208.783 198.448 208.947 198.51 209.067 198.618C209.188 198.727 209.255 198.875 209.255 199.029C209.255 199.183 209.188 199.33 209.067 199.439C208.947 199.548 208.783 199.609 208.613 199.609H165.626C163.633 199.611 161.723 200.327 160.314 201.6C158.906 202.873 158.115 204.599 158.115 206.399C158.115 208.198 158.906 209.924 160.314 211.197C161.723 212.47 163.633 213.186 165.626 213.188H208.613C208.783 213.188 208.946 213.249 209.067 213.358C209.187 213.467 209.255 213.615 209.255 213.768V213.768Z" fill="#3F3D56"/>
<path d="M208.227 202.279H163.249C163.232 202.279 163.215 202.276 163.199 202.27C163.183 202.264 163.169 202.256 163.157 202.245C163.145 202.234 163.136 202.221 163.129 202.207C163.122 202.193 163.119 202.178 163.119 202.162C163.119 202.147 163.122 202.132 163.129 202.118C163.136 202.104 163.145 202.091 163.157 202.08C163.169 202.069 163.183 202.061 163.199 202.055C163.215 202.049 163.232 202.046 163.249 202.046H208.227C208.261 202.047 208.294 202.059 208.317 202.081C208.341 202.102 208.355 202.132 208.355 202.162C208.355 202.193 208.341 202.223 208.317 202.244C208.294 202.266 208.261 202.278 208.227 202.279V202.279Z" fill="#CCCCCC"/>
<path d="M208.227 205.064H163.249C163.232 205.064 163.215 205.061 163.199 205.056C163.183 205.05 163.169 205.041 163.157 205.03C163.145 205.02 163.136 205.007 163.129 204.993C163.122 204.979 163.119 204.963 163.119 204.948C163.119 204.933 163.122 204.918 163.129 204.904C163.136 204.889 163.145 204.877 163.157 204.866C163.169 204.855 163.183 204.846 163.199 204.841C163.215 204.835 163.232 204.832 163.249 204.832H208.227C208.261 204.832 208.294 204.845 208.317 204.866C208.341 204.888 208.355 204.917 208.355 204.948C208.355 204.979 208.341 205.008 208.317 205.03C208.294 205.052 208.261 205.064 208.227 205.064V205.064Z" fill="#CCCCCC"/>
<path d="M208.227 207.849H163.249C163.232 207.849 163.215 207.846 163.199 207.841C163.183 207.835 163.169 207.826 163.157 207.816C163.145 207.805 163.136 207.792 163.129 207.778C163.122 207.764 163.119 207.749 163.119 207.733C163.119 207.718 163.122 207.703 163.129 207.689C163.136 207.675 163.145 207.662 163.157 207.651C163.169 207.64 163.183 207.632 163.199 207.626C163.215 207.62 163.232 207.617 163.249 207.617H208.227C208.261 207.617 208.294 207.63 208.317 207.651C208.341 207.673 208.355 207.703 208.355 207.733C208.355 207.764 208.341 207.793 208.317 207.815C208.294 207.837 208.261 207.849 208.227 207.849V207.849Z" fill="#CCCCCC"/>
<path d="M208.227 210.635H163.249C163.232 210.635 163.215 210.632 163.199 210.626C163.183 210.621 163.169 210.612 163.157 210.601C163.145 210.59 163.136 210.578 163.129 210.564C163.122 210.549 163.119 210.534 163.119 210.519C163.119 210.504 163.122 210.488 163.129 210.474C163.136 210.46 163.145 210.447 163.157 210.437C163.169 210.426 163.183 210.417 163.199 210.411C163.215 210.406 163.232 210.403 163.249 210.403H208.227C208.261 210.403 208.294 210.415 208.317 210.437C208.341 210.459 208.355 210.488 208.355 210.519C208.355 210.55 208.341 210.579 208.317 210.601C208.294 210.622 208.261 210.635 208.227 210.635V210.635Z" fill="#CCCCCC"/>
<path d="M151.801 100.32V4.12276C151.802 3.02972 152.284 1.9818 153.14 1.20891C153.995 0.436008 155.156 0.0012433 156.366 0H240.565C241.776 0.00125054 242.936 0.436018 243.792 1.20892C244.648 1.98181 245.129 3.02972 245.13 4.12276V100.32C245.129 101.414 244.648 102.461 243.792 103.234C242.936 104.007 241.776 104.442 240.565 104.443H156.366C155.156 104.442 153.995 104.007 153.14 103.234C152.284 102.461 151.802 101.414 151.801 100.32V100.32ZM156.366 0.916171C155.425 0.917123 154.522 1.25527 153.857 1.85641C153.191 2.45756 152.817 3.27262 152.815 4.12276V100.32C152.817 101.171 153.191 101.986 153.857 102.587C154.522 103.188 155.425 103.526 156.366 103.527H240.565C241.507 103.526 242.409 103.188 243.075 102.587C243.741 101.986 244.115 101.171 244.116 100.32V4.12276C244.115 3.27262 243.741 2.45756 243.075 1.85641C242.409 1.25527 241.507 0.917124 240.565 0.916171H156.366Z" fill="#E6E6E6"/>
<path d="M203.188 44.1786V24.4261C203.188 23.8796 203.429 23.3556 203.857 22.9692C204.285 22.5827 204.865 22.3654 205.47 22.3647H224.004C224.609 22.3654 225.189 22.5827 225.617 22.9692C226.045 23.3556 226.286 23.8796 226.287 24.4261V44.1786C226.286 44.7251 226.045 45.249 225.617 45.6355C225.189 46.022 224.609 46.2393 224.004 46.2399H205.47C204.865 46.2393 204.285 46.022 203.857 45.6355C203.429 45.249 203.188 44.7251 203.188 44.1786V44.1786Z" fill="#CAE9FF"/>
<path d="M167.174 53.3401V33.5877C167.175 33.0412 167.416 32.5172 167.844 32.1308C168.272 31.7443 168.852 31.527 169.457 31.5264H187.991C188.596 31.527 189.176 31.7443 189.604 32.1308C190.032 32.5172 190.273 33.0412 190.273 33.5877V53.3402C190.273 53.8867 190.032 54.4107 189.604 54.7971C189.176 55.1836 188.596 55.4009 187.991 55.4015H169.457C168.852 55.4009 168.272 55.1836 167.844 54.7971C167.416 54.4106 167.175 53.8867 167.174 53.3401V53.3401Z" fill="#CCCCCC"/>
<path d="M196.086 81.2833V61.5309C196.087 60.9843 196.328 60.4604 196.755 60.0739C197.183 59.6875 197.764 59.4701 198.369 59.4695H216.903C217.508 59.4701 218.088 59.6875 218.516 60.0739C218.944 60.4604 219.185 60.9843 219.185 61.5309V81.2833C219.185 81.8298 218.944 82.3538 218.516 82.7402C218.088 83.1267 217.508 83.3441 216.903 83.3447H198.369C197.764 83.3441 197.183 83.1267 196.755 82.7402C196.328 82.3538 196.087 81.8298 196.086 81.2833V81.2833Z" fill="#FF6584"/>
<path d="M306.845 171.59H287.775C287.594 171.59 287.415 171.627 287.253 171.7L282.44 173.876C282.281 173.936 282.146 174.038 282.051 174.168C281.956 174.297 281.906 174.449 281.906 174.605C281.906 174.76 281.956 174.912 282.051 175.042C282.146 175.171 282.281 175.273 282.44 175.334L287.253 177.51C287.415 177.582 287.594 177.62 287.775 177.619H306.845C307.107 177.633 307.366 177.553 307.563 177.396C307.761 177.239 307.882 177.018 307.901 176.781V172.429C307.882 172.191 307.761 171.97 307.563 171.813C307.366 171.656 307.107 171.576 306.845 171.59Z" fill="#3F3D56"/>
<path d="M307.901 172.429V176.781C307.882 177.018 307.761 177.239 307.563 177.396C307.365 177.553 307.107 177.633 306.844 177.619H303.045V171.59H306.844C307.107 171.576 307.365 171.656 307.563 171.813C307.761 171.97 307.882 172.191 307.901 172.429V172.429Z" fill="#CAE9FF"/>
<path d="M306.701 139.03C307.565 138.694 308.498 138.526 309.438 138.537C310.379 138.549 311.306 138.74 312.16 139.098C313.013 139.456 313.773 139.972 314.39 140.614C315.006 141.255 315.466 142.007 315.739 142.821C315.823 143.078 315.888 143.341 315.933 143.607L342.601 155.55L348.772 151.856L356.451 159.84L347.028 166.752C345.894 167.577 344.497 168.05 343.043 168.1C341.588 168.151 340.155 167.777 338.955 167.033L311.898 150.135C311.697 150.212 311.491 150.28 311.282 150.338C310.381 150.584 309.433 150.655 308.5 150.547C307.567 150.44 306.669 150.155 305.867 149.712C305.064 149.269 304.374 148.677 303.841 147.977C303.309 147.276 302.947 146.482 302.778 145.646C302.728 145.403 302.696 145.158 302.68 144.911C302.605 143.678 302.95 142.453 303.669 141.401C304.388 140.35 305.446 139.522 306.701 139.03V139.03Z" fill="#FFB8B8"/>
<path d="M362.245 212.562H333.106C333.106 213.319 303.075 213.933 303.075 213.933C302.603 214.253 302.174 214.621 301.794 215.029C300.653 216.258 300.03 217.811 300.034 219.414V220.51C300.034 222.327 300.834 224.07 302.257 225.354C303.679 226.639 305.609 227.361 307.62 227.362H362.245C364.256 227.36 366.185 226.638 367.607 225.353C369.03 224.069 369.83 222.327 369.831 220.51V219.414C369.829 217.598 369.028 215.856 367.606 214.572C366.184 213.287 364.256 212.565 362.245 212.562V212.562Z" fill="#3F3D56"/>
<path d="M330.548 273.133H338.438V227.09H330.548V273.133Z" fill="#3F3D56"/>
<path d="M308.092 272.883C308.092 273.653 320.048 273.181 334.797 273.181C349.546 273.181 361.502 273.653 361.502 272.883C361.502 272.113 349.546 266.007 334.797 266.007C320.048 266.007 308.092 272.113 308.092 272.883Z" fill="#3F3D56"/>
<path d="M315.214 267.486L307.774 267.485L304.234 250.056L315.216 250.057L315.214 267.486Z" fill="#FFB8B8"/>
<path d="M317.112 274L293.12 273.999V273.725C293.12 272.618 293.361 271.521 293.83 270.498C294.3 269.475 294.988 268.545 295.855 267.762C296.722 266.978 297.752 266.357 298.885 265.933C300.018 265.51 301.232 265.291 302.458 265.292H302.459L317.113 265.292L317.112 274Z" fill="#2F2E41"/>
<path d="M304.085 256.678L289.251 226.636C288.013 224.104 287.876 221.243 288.868 218.624C289.86 216.005 291.907 213.82 294.604 212.503L326.779 196.921L341.462 195.793L355.005 194.681L355.103 194.83C355.228 195.021 358.14 199.563 356.172 204.544C354.679 208.322 350.795 211.273 344.628 213.315C330.235 218.082 313.608 222.155 307.128 223.685C306.842 223.751 306.574 223.871 306.343 224.038C306.111 224.204 305.922 224.412 305.786 224.65C305.65 224.884 305.569 225.141 305.549 225.405C305.528 225.669 305.568 225.934 305.667 226.184L319.448 254.147C319.592 254.501 319.644 254.881 319.6 255.257C319.555 255.632 319.416 255.994 319.193 256.313C318.969 256.632 318.668 256.901 318.311 257.098C317.955 257.296 317.553 257.417 317.136 257.452L306.839 258.129C306.751 258.136 306.664 258.14 306.578 258.14C306.05 258.14 305.534 258.002 305.092 257.742C304.65 257.483 304.3 257.113 304.085 256.678V256.678Z" fill="#2F2E41"/>
<path d="M318.856 267.486L311.416 267.485L307.875 250.056L318.857 250.057L318.856 267.486Z" fill="#FFB8B8"/>
<path d="M320.754 274L296.761 273.999V273.725C296.761 272.618 297.003 271.521 297.472 270.498C297.941 269.475 298.629 268.545 299.496 267.762C300.364 266.978 301.393 266.357 302.526 265.933C303.659 265.51 304.873 265.291 306.1 265.292H306.1L320.754 265.292L320.754 274Z" fill="#2F2E41"/>
<path d="M308.334 258.322L293.5 228.28C292.261 225.748 292.124 222.888 293.116 220.269C294.108 217.649 296.156 215.464 298.852 214.147L331.028 198.565L345.71 197.437L359.254 196.325L359.352 196.475C359.477 196.665 362.389 201.208 360.42 206.188C358.927 209.966 355.043 212.918 348.877 214.96C334.484 219.726 317.857 223.799 311.377 225.329C311.09 225.395 310.822 225.516 310.591 225.682C310.36 225.848 310.17 226.057 310.034 226.294C309.898 226.528 309.818 226.786 309.797 227.05C309.777 227.314 309.817 227.579 309.915 227.828L323.697 255.791C323.841 256.146 323.893 256.525 323.848 256.901C323.804 257.277 323.665 257.638 323.441 257.957C323.218 258.277 322.916 258.545 322.56 258.743C322.203 258.94 321.801 259.061 321.385 259.096L311.087 259.773C311 259.78 310.913 259.784 310.826 259.784C310.299 259.784 309.783 259.646 309.34 259.386C308.898 259.127 308.548 258.757 308.334 258.322V258.322Z" fill="#2F2E41"/>
<path d="M300.94 166.548C294.707 159.059 289.779 150.754 286.328 141.919C286.128 141.391 286.142 140.815 286.368 140.295C286.594 139.775 287.016 139.345 287.561 139.08L308.892 128.758C309.237 128.589 309.62 128.495 310.012 128.48C310.404 128.466 310.794 128.532 311.153 128.675C311.519 128.818 311.843 129.035 312.102 129.309C312.361 129.583 312.547 129.907 312.647 130.256C315.13 138.769 319.797 146.635 326.27 153.217C326.536 153.485 326.732 153.805 326.841 154.151C326.95 154.497 326.97 154.862 326.9 155.216C326.833 155.565 326.678 155.895 326.447 156.182C326.217 156.469 325.918 156.704 325.571 156.871L304.24 167.193C303.695 167.456 303.064 167.535 302.459 167.417C301.855 167.299 301.316 166.991 300.94 166.548V166.548Z" fill="#CCCCCC"/>
<path d="M302.396 165.56C302.51 165.689 302.671 165.778 302.851 165.812C303.031 165.845 303.218 165.821 303.38 165.743L324.711 155.421C324.815 155.372 324.904 155.302 324.973 155.217C325.042 155.132 325.088 155.033 325.107 154.929C325.129 154.819 325.123 154.707 325.089 154.599C325.055 154.492 324.994 154.393 324.91 154.311C318.246 147.535 313.441 139.437 310.886 130.673C310.856 130.564 310.799 130.464 310.719 130.379C310.639 130.294 310.539 130.226 310.425 130.182C310.319 130.139 310.202 130.119 310.085 130.123C309.968 130.128 309.854 130.156 309.752 130.207L288.421 140.529C288.259 140.608 288.133 140.736 288.065 140.89C287.996 141.043 287.989 141.214 288.045 141.372C291.434 150.049 296.274 158.206 302.396 165.56V165.56Z" fill="white"/>
<path d="M371.805 163.794L355.099 169.527L351.02 159.296C350.479 157.937 350.486 156.449 351.042 155.095C351.597 153.741 352.665 152.608 354.056 151.896V151.896C355.463 151.176 357.109 150.934 358.697 151.214C360.284 151.494 361.709 152.277 362.713 153.422L371.805 163.794Z" fill="#CAE9FF"/>
<path d="M329.313 204.334C328.962 204.11 328.667 203.82 328.449 203.485C328.231 203.149 328.095 202.776 328.049 202.389C325.909 184.35 327.399 170.233 332.604 159.232C333.521 157.334 334.902 155.649 336.644 154.303C338.385 152.957 340.442 151.984 342.659 151.459L356.163 150.844L356.233 150.874C359.281 152.222 361.766 154.421 363.32 157.145C364.875 159.869 365.416 162.973 364.864 165.996C360.52 176.336 356.883 187.101 359.657 195.785C359.773 196.149 359.807 196.529 359.757 196.904C359.706 197.279 359.572 197.642 359.363 197.969C359.16 198.285 358.888 198.561 358.563 198.779C358.238 198.996 357.866 199.151 357.472 199.235L331.751 204.76C331.335 204.85 330.902 204.858 330.481 204.785C330.061 204.711 329.663 204.558 329.313 204.334Z" fill="#CAE9FF"/>
<path d="M351.657 146.289C359.89 146.289 366.564 140.261 366.564 132.826C366.564 125.391 359.89 119.363 351.657 119.363C343.424 119.363 336.75 125.391 336.75 132.826C336.75 140.261 343.424 146.289 351.657 146.289Z" fill="#FFB8B8"/>
<path d="M310.292 143.489L298.674 148.12C298.233 148.296 297.732 148.306 297.281 148.149C296.831 147.991 296.469 147.679 296.273 147.28L295.986 146.692C295.792 146.293 295.78 145.841 295.955 145.434C296.129 145.028 296.475 144.7 296.916 144.524L308.534 139.892C308.976 139.717 309.477 139.706 309.927 139.864C310.377 140.021 310.74 140.334 310.935 140.732L311.223 141.32C311.417 141.719 311.428 142.172 311.254 142.578C311.079 142.985 310.734 143.312 310.292 143.489V143.489Z" fill="#CCCCCC"/>
<path d="M314.541 150.614L302.923 155.246C302.481 155.422 301.98 155.432 301.53 155.274C301.08 155.117 300.717 154.804 300.522 154.406L300.235 153.818C300.04 153.419 300.029 152.966 300.203 152.56C300.378 152.153 300.724 151.826 301.165 151.649L312.783 147.018C313.225 146.842 313.726 146.832 314.176 146.99C314.626 147.147 314.988 147.46 315.184 147.858L315.471 148.446C315.666 148.845 315.677 149.298 315.502 149.704C315.328 150.111 314.982 150.438 314.541 150.614V150.614Z" fill="#CCCCCC"/>
<path d="M323.5 178.447L297.6 159.994C297.393 160.059 297.183 160.115 296.971 160.161C296.057 160.354 295.108 160.372 294.186 160.212C293.264 160.052 292.389 159.719 291.619 159.234C290.844 158.749 290.192 158.12 289.708 157.389C289.223 156.658 288.918 155.842 288.811 154.995C288.637 153.642 288.975 152.276 289.769 151.118C290.563 149.96 291.768 149.078 293.186 148.616C294.072 148.329 295.014 148.214 295.952 148.279C296.89 148.344 297.803 148.588 298.629 148.993C299.456 149.399 300.178 149.958 300.749 150.633C301.32 151.308 301.727 152.085 301.942 152.912C302.009 153.174 302.055 153.44 302.081 153.708L327.865 167.141L334.281 163.805L341.389 172.209L331.427 178.622C330.26 179.366 328.859 179.751 327.431 179.72C326.004 179.689 324.625 179.242 323.5 178.447V178.447Z" fill="#FFB8B8"/>
<path d="M344.549 174.826L329.771 165.75L336.716 156.867C337.639 155.687 338.993 154.84 340.54 154.475C342.087 154.11 343.727 154.25 345.17 154.872V154.872C346.63 155.5 347.793 156.58 348.449 157.915C349.105 159.25 349.211 160.753 348.748 162.152L344.549 174.826Z" fill="#CAE9FF"/>
<path d="M346.191 130.821C342.36 133.189 337.329 135.623 333.416 133.101C330.846 131.445 330.037 128.379 331.079 125.688C332.953 120.849 338.101 118.718 343.024 117.085C349.423 114.962 356.392 113.273 362.999 114.794C369.605 116.314 375.444 122.091 374.252 128.153C373.292 133.028 368.2 137.085 368.923 141.993C369.651 146.933 375.802 149.533 381.233 150.416C386.663 151.299 392.741 151.583 396.643 155.106C401.622 159.6 400.379 167.632 395.694 172.377C391.009 177.122 383.94 179.273 377.089 180.735C368.013 182.672 358.196 183.69 349.575 180.475C340.955 177.26 334.247 168.606 336.744 160.49C337.799 157.062 340.284 154.165 342.685 151.345C345.086 148.525 347.518 145.575 348.434 142.115C349.198 139.231 348.633 135.883 346.515 133.72C346.13 133.342 345.888 132.863 345.823 132.352C345.758 131.841 345.874 131.325 346.154 130.878L346.191 130.821Z" fill="#2F2E41"/>
<path d="M66.2 196.232C62.3587 197.451 58.2345 197.756 54.2246 197.119C50.2147 196.481 46.4543 194.921 43.3056 192.589C35.2868 186.511 32.7726 176.497 30.727 167.224C28.7101 158.082 26.6932 148.94 24.6763 139.798L37.344 147.676C46.4539 153.341 55.7691 159.187 62.0767 167.393C68.3844 175.598 71.1377 186.799 66.0697 195.678" fill="#E6E6E6"/>
<path d="M65.117 229.437C66.3992 221.002 67.7176 212.46 66.8182 203.935C66.0195 196.364 63.4619 188.969 58.255 182.906C55.4912 179.694 52.1282 176.942 48.3172 174.773C47.3234 174.207 46.4087 175.629 47.3982 176.193C53.9924 179.957 59.0927 185.515 61.9639 192.065C65.1351 199.35 65.6444 207.29 65.0979 215.028C64.7674 219.708 64.067 224.357 63.3612 229C63.3056 229.21 63.3403 229.431 63.4583 229.619C63.5764 229.806 63.7689 229.947 63.9971 230.011C64.2299 230.068 64.478 230.039 64.6877 229.932C64.8973 229.824 65.0516 229.646 65.117 229.437H65.117Z" fill="#F2F2F2"/>
<path d="M52.7676 214.512C51.1202 216.773 48.8557 218.613 46.1922 219.855C43.5288 221.096 40.5563 221.697 37.561 221.6C29.8631 221.27 23.4456 216.418 17.6686 211.811L0.581299 198.186L11.8902 197.697C20.0229 197.346 28.3655 197.018 36.1116 199.283C43.8577 201.548 51.0016 206.999 52.418 214.24" fill="#E6E6E6"/>
<path d="M68.7405 234.285C62.5693 224.424 55.4113 213.464 42.6211 209.961C39.0648 208.99 35.3358 208.642 31.6349 208.936C30.4685 209.027 30.7598 210.651 31.9241 210.56C38.1276 210.095 44.3191 211.574 49.4563 214.749C54.3998 217.788 58.2488 222.013 61.5065 226.493C63.502 229.237 65.2894 232.098 67.0772 234.955C67.6485 235.868 69.3185 235.209 68.7405 234.285V234.285Z" fill="#F2F2F2"/>
<path d="M78.6284 244.665C78.4205 242.49 77.5555 240.407 76.1276 238.644C74.6996 236.882 72.7636 235.507 70.5302 234.669V228.968H59.9423V234.849C57.8189 235.728 55.9914 237.099 54.6463 238.824C53.3011 240.548 52.4864 242.564 52.2851 244.665L49.7954 270.802H81.1181L78.6284 244.665Z" fill="#F2F2F2"/>
</g>
<defs>
<clipPath id="clip0">
<rect width="420" height="274" fill="white"/>
</clipPath>
</defs>
</svg>
