<svg width="53" height="49" viewBox="0 0 53 49" fill="none" xmlns="http://www.w3.org/2000/svg">
<path d="M9.7753 41.6515L6.05371 3.0625H46.9465L43.22 41.6454L26.4753 45.9375L9.7753 41.6515Z" fill="#E44F26"/>
<path d="M26.5 42.6575L40.0316 39.1893L43.2149 6.21838H26.5V42.6575Z" fill="#F1662A"/>
<path d="M26.5 20.5295H19.7259L19.2589 15.683H26.5V10.95H13.6641L13.7866 12.2209L15.0437 25.2625H26.5V20.5295V20.5295Z" fill="#EBEBEB"/>
<path d="M26.4999 32.8208L26.4767 32.8269L20.7759 31.4044L20.4116 27.6299H15.2722L15.9894 35.0595L26.4767 37.7514L26.4999 37.7453V32.8208Z" fill="#EBEBEB"/>
<path d="M26.4817 20.5294V25.2625H32.7854L32.1924 31.4013L26.4817 32.8254V37.7499L36.9773 35.0594L37.0535 34.2601L38.256 21.8004L38.3818 20.5294H26.4817V20.5294Z" fill="white"/>
<path d="M26.4817 10.95V15.683H38.8473L38.9499 14.6204L39.1835 12.2209L39.306 10.95H26.4817V10.95Z" fill="white"/>
</svg>
