<svg width="45" height="43" viewBox="0 0 45 43" fill="none" xmlns="http://www.w3.org/2000/svg">
<path d="M2.8125 2.6875H42.1875V40.3125H2.8125V2.6875Z" fill="#F5DE19"/>
<path d="M29.2627 32.0821C29.5982 32.7333 30.1194 33.2806 30.7663 33.661C31.4132 34.0414 32.1594 34.2394 32.919 34.2321C34.4518 34.2321 35.4319 33.4998 35.4319 32.4852C35.4319 31.2758 34.4251 30.8432 32.7376 30.1377L31.8123 29.7588C29.1404 28.6717 27.3685 27.3104 27.3685 24.4321C27.3685 21.7809 29.4779 19.7613 32.7868 19.7613C33.8579 19.6873 34.9282 19.9164 35.8639 20.4199C36.7997 20.9234 37.5597 21.679 38.049 22.5925L35.1563 24.3596C34.9679 23.9066 34.6399 23.5191 34.2157 23.2484C33.7915 22.9777 33.2912 22.8366 32.7812 22.8438C32.5586 22.8225 32.3339 22.8458 32.1213 22.9121C31.9087 22.9783 31.7129 23.0862 31.5463 23.2288C31.3798 23.3714 31.2461 23.5456 31.1539 23.7403C31.0617 23.935 31.0129 24.1459 31.0107 24.3596C31.0107 25.4198 31.6984 25.8498 33.286 26.5096L34.2113 26.8885C37.3557 28.1772 39.1332 29.49 39.1332 32.4422C39.1332 35.6256 36.5162 37.3698 33.0019 37.3698C31.6327 37.4531 30.2674 37.1561 29.0709 36.5144C27.8744 35.8728 26.8978 34.914 26.259 33.7537L29.2627 32.0821ZM16.1916 32.3885C16.7724 33.3734 17.3012 34.2066 18.5724 34.2066C19.7874 34.2066 20.5552 33.7524 20.5552 31.9853V19.9628H24.2551V32.0324C24.2551 35.6928 22.0051 37.359 18.7299 37.359C17.5722 37.4195 16.4225 37.1438 15.4318 36.5682C14.4412 35.9926 13.656 35.144 13.1794 34.134L16.1916 32.3885Z" fill="black"/>
</svg>
