<svg width="42" height="34" viewBox="0 0 42 34" fill="none" xmlns="http://www.w3.org/2000/svg">
<g clip-path="url(#clip0)">
<path d="M19.7894 23.6191C19.7703 23.6507 19.7513 23.6759 19.7894 23.6191V23.6191ZM35.6047 19.0406C34.3274 19.0406 33.0678 19.2826 31.9226 19.751C31.548 19.1248 31.1607 18.5775 31.0973 18.167C31.0211 17.6881 30.9385 17.4039 31.0274 16.8355C31.1163 16.2671 31.5163 15.4619 31.5099 15.4041C31.5036 15.3462 31.421 15.0567 30.6021 15.0515C29.7831 15.0462 29.0784 15.183 28.9959 15.362C28.851 15.6889 28.7385 16.025 28.6594 16.3671C28.5134 16.9829 27.0228 19.1827 26.1785 20.3299C25.8991 19.8826 25.6642 19.4879 25.6134 19.1721C25.5373 18.6932 25.4547 18.409 25.5436 17.8407C25.6325 17.2723 26.0324 16.4671 26.0261 16.4092C26.0197 16.3513 25.9372 16.0619 25.1195 16.0566C24.3019 16.0514 23.5959 16.1882 23.5134 16.3671C23.4308 16.5461 23.342 16.9671 23.1769 17.3723C23.0118 17.7775 21.0248 21.4403 20.5055 22.3929C20.2388 22.8771 20.0103 23.2665 19.8452 23.5296C19.8198 23.5717 19.8008 23.598 19.7881 23.6191C19.8071 23.5928 19.8198 23.5665 19.8198 23.577C19.6802 23.8033 19.5976 23.9296 19.5976 23.9296V23.9349C19.4897 24.1033 19.3691 24.2559 19.312 24.2559C19.2739 24.2559 19.1913 23.8138 19.331 23.2086C19.6294 21.935 20.3341 19.9563 20.3277 19.8879C20.3214 19.851 20.461 19.5089 19.8643 19.3248C19.2866 19.1511 19.0771 19.4405 19.0263 19.4405C18.9755 19.4405 18.9374 19.5458 18.9374 19.5458C18.9374 19.5458 19.5786 17.3144 17.7058 17.3144C16.5377 17.3144 14.9125 18.3775 14.1138 19.3405C13.6123 19.5668 12.5267 20.0563 11.384 20.5773L10.0699 21.1772C10.0381 21.1509 10.0127 21.1246 9.98098 21.0983C7.70823 19.0879 3.51316 17.667 3.69091 14.9673C3.7544 13.9831 4.16705 11.3992 11.7585 8.26261C17.98 5.69443 22.9534 6.39962 23.8105 7.9679C25.0421 10.2045 21.1505 14.3673 14.6903 14.9673C12.2271 15.1936 10.9332 14.4042 10.6095 14.1094C10.273 13.7989 10.2222 13.7832 10.0953 13.841C9.88575 13.9358 10.0191 14.2094 10.0953 14.3726C10.2857 14.7883 11.0793 15.5251 12.4315 15.8935C13.6187 16.2145 16.5059 16.3934 19.9963 15.2725C23.9184 14.02 26.972 10.5308 26.0756 7.61004C25.164 4.64189 19.2269 3.6683 13.6136 5.32078C10.2679 6.3049 6.65057 7.85212 4.04897 9.86773C0.957264 12.2675 0.463353 14.3568 0.666504 15.2304C1.39023 18.3301 6.54392 20.351 8.6059 21.8456L8.32022 21.9771C7.28542 22.4034 3.35699 24.1085 2.37297 25.9084C1.26199 27.9503 2.55708 29.4133 3.4065 29.6133C6.06016 30.2237 8.77604 29.1238 10.2362 27.3188C11.6963 25.5137 11.5186 23.156 10.8456 22.0824C10.8393 22.0666 10.8266 22.0561 10.8202 22.0403C11.582 21.6663 12.3503 21.3013 13.1247 20.9457C12.8708 21.514 12.6867 22.1982 12.5915 23.1876C12.4772 24.3453 13.0549 25.8452 13.804 26.4346C14.1341 26.6925 14.5328 26.6978 14.7817 26.6978C15.6578 26.6978 16.0514 26.0978 16.4894 25.3821C17.029 24.5085 17.5052 23.4928 17.5052 23.4928C17.5052 23.4928 16.9084 26.2399 18.54 26.2399C19.1367 26.2399 19.7335 25.6031 20.0001 25.2768V25.2821C20.0001 25.2821 20.0128 25.261 20.0446 25.2189C20.1081 25.14 20.1398 25.0926 20.1398 25.0926V25.0769C20.381 24.7348 20.908 23.9506 21.7015 22.656C22.73 20.9825 23.7127 18.8932 23.7127 18.8932C23.8079 19.3521 23.94 19.8058 24.1063 20.251C24.2841 20.7509 24.6586 21.2983 24.957 21.8298C24.7158 22.1034 24.5698 22.2613 24.5698 22.2613C24.5698 22.2655 24.5723 22.2687 24.5761 22.2718C24.3857 22.4824 24.1698 22.7087 23.9476 22.9297C23.1363 23.7296 22.17 24.6453 22.0431 24.9084C21.8907 25.2189 21.9288 25.4505 22.2208 25.6294C22.4367 25.7663 22.8176 25.7873 23.2175 25.761C23.9476 25.7189 24.4618 25.5715 24.7094 25.4768C25.1661 25.3412 25.5977 25.1534 25.9918 24.919C26.7854 24.4348 27.2679 23.7401 27.2234 22.8244C27.198 22.3192 27.0012 21.814 26.76 21.3404C26.8298 21.2562 26.906 21.1667 26.9758 21.0772C27.802 20.0554 28.5463 18.9897 29.2041 17.887C29.2994 18.3459 29.4301 18.7995 29.5977 19.2448C29.7501 19.671 30.0485 20.1394 30.3215 20.5973C29.1407 21.3919 28.4106 22.3129 28.1579 22.9181C27.6881 24.0391 28.0563 24.5443 28.7483 24.6601C29.0594 24.7127 29.5038 24.5916 29.8339 24.4759C30.324 24.3401 30.7862 24.1433 31.2039 23.8917C31.9975 23.4075 32.7656 22.7286 32.7136 21.8077C32.6945 21.3919 32.5549 20.9762 32.3708 20.5762C33.3675 20.2289 34.6626 20.0394 36.3132 20.1973C39.848 20.5394 40.54 22.3708 40.4067 23.1339C40.2733 23.897 39.5306 24.3232 39.283 24.4495C39.0354 24.5758 38.9592 24.6232 38.9782 24.7179C39.01 24.8548 39.1243 24.8495 39.3338 24.8179C39.6258 24.7758 41.1875 24.1969 41.2573 22.7813C41.3589 20.992 39.283 19.0237 35.6072 19.0395L35.6047 19.0406ZM8.35831 26.6557C7.19019 27.7135 5.55356 28.1134 4.84888 27.7766C4.09341 27.4124 4.39179 25.8557 5.83162 24.7285C6.70771 24.0443 7.83774 23.4128 8.58685 23.0234C8.75826 22.9392 9.00585 22.8129 9.31058 22.6602C9.33534 22.6471 9.36076 22.6348 9.38676 22.6234C9.4439 22.5918 9.50738 22.5655 9.57087 22.5339C10.0965 24.1338 9.58991 25.5442 8.35831 26.6546V26.6557ZM16.8881 21.8456C16.4818 22.6718 15.626 24.7769 15.1042 24.6664C14.6598 24.5716 14.3868 22.9665 15.0153 21.3877C15.3327 20.5931 16.0057 19.6458 16.4056 19.2774C17.0468 18.6827 17.7515 18.4932 17.9166 18.7301C18.1388 19.0406 17.1421 21.3298 16.8881 21.8456ZM23.9349 24.6348C23.7635 24.7085 23.6048 24.7558 23.5286 24.719C23.4715 24.6927 23.5984 24.5927 23.5984 24.5927C23.5984 24.5927 24.4809 23.8085 24.83 23.4507C25.0332 23.2402 25.2681 22.9928 25.522 22.7192C25.522 22.7455 25.5284 22.7718 25.5284 22.8034C25.5208 23.7454 24.4288 24.3822 23.9336 24.6348H23.9349ZM29.3692 23.6086C29.2422 23.5349 29.2613 23.2875 29.6866 22.5192C29.8517 22.2192 30.2326 21.714 30.8928 21.2298C30.9677 21.413 31.0084 21.6045 31.0135 21.7982C31.0071 22.9823 29.985 23.4244 29.3692 23.6086V23.6086Z" fill="#BEE9E8"/>
</g>
<defs>
<clipPath id="clip0">
<rect width="40.6302" height="33.6811" fill="white" transform="translate(0.627197 0.30957)"/>
</clipPath>
</defs>
</svg>
