<svg width="48" height="43" viewBox="0 0 48 43" fill="none" xmlns="http://www.w3.org/2000/svg">
<path d="M39.1651 23.6124C37.8461 23.6139 36.5448 23.8841 35.3596 24.4025C34.9885 23.8508 34.7019 23.2569 34.5076 22.6368C34.3959 22.1507 34.3701 21.652 34.4311 21.1587C34.5593 20.6159 34.7256 20.0809 34.9291 19.5569C34.9216 19.4884 34.8376 19.1646 33.9931 19.1538C33.1486 19.1431 32.4211 19.2976 32.3431 19.4978C32.1964 19.8635 32.0786 20.238 31.9906 20.6185C31.2917 22.1632 30.4314 23.6452 29.4211 25.0448C28.8551 24.2136 28.6223 23.2343 28.7611 22.2686C28.8893 21.7259 29.0557 21.1909 29.2591 20.6669C29.2516 20.5984 29.1676 20.2745 28.3231 20.2638C27.4786 20.253 26.7511 20.4075 26.6731 20.6078C26.5951 20.808 26.4961 21.2796 26.3206 21.7284C26.1451 22.1773 24.0961 26.2784 23.5591 27.3359C23.2831 27.8734 23.0446 28.3115 22.8766 28.6071C22.8686 28.6263 22.8586 28.6448 22.8466 28.6622L22.6171 29.0546V29.0613C22.5016 29.2467 22.3786 29.4187 22.3171 29.4187C22.2098 29.0348 22.215 28.6326 22.3321 28.251C22.6321 26.828 23.3671 24.6162 23.3596 24.5396C23.3596 24.4979 23.4976 24.1136 22.8841 23.9147C22.7418 23.8541 22.582 23.8344 22.4268 23.8585C22.2715 23.8825 22.1284 23.9491 22.0171 24.0491C21.9631 24.0491 21.9256 24.166 21.9256 24.166C21.9256 24.166 22.5931 21.6787 20.6521 21.6787C19.8962 21.8149 19.1784 22.0852 18.5409 22.4736C17.9033 22.8619 17.3589 23.3606 16.9396 23.9403C16.4176 24.1942 15.3061 24.7371 14.1166 25.3216C13.6666 25.5487 13.1956 25.7758 12.7591 25.9935C12.7291 25.9666 12.6976 25.9317 12.6676 25.9048C10.3051 23.65 5.9626 22.059 6.1501 19.0423C6.2191 17.9431 6.64061 15.0567 14.4886 11.5509C20.9476 8.69944 26.0881 9.48957 26.9776 11.2418C28.2511 13.7439 24.2236 18.3892 17.5501 19.0624C16.8118 19.1966 16.0493 19.1804 15.3189 19.0151C14.5886 18.8497 13.9091 18.5394 13.3306 18.107C12.9781 17.763 12.9241 17.7429 12.7936 17.8114C12.5791 17.9149 12.7171 18.2239 12.7936 18.4027C13.0482 18.8154 13.3925 19.1782 13.8063 19.4697C14.2201 19.7612 14.6948 19.9755 15.2026 20.0998C17.828 20.6081 20.5652 20.3651 23.0281 19.4051C27.0781 18.0036 30.2281 14.1067 29.3041 10.8427C28.3756 7.53038 22.2391 6.43791 16.4311 8.2896C12.7932 9.3862 9.43185 11.1135 6.5386 13.373C3.3391 16.0538 2.8336 18.3825 3.0406 19.3594C3.7906 22.8236 9.1171 25.0771 11.2486 26.75C11.1523 26.7991 11.0553 26.847 10.9576 26.8938C9.8911 27.3682 5.8261 29.2723 4.8076 31.2852C3.6571 33.5696 4.9921 35.2022 5.8741 35.4226C7.20311 35.7076 8.59829 35.6137 9.86487 35.1541C11.1314 34.6944 12.2062 33.892 12.9391 32.8587C13.5632 32.0017 13.9468 31.0222 14.0573 30.0038C14.1678 28.9853 14.0018 27.958 13.5736 27.0094C13.5664 26.994 13.5562 26.98 13.5436 26.9677L14.3791 26.5283C14.8868 26.2595 15.4009 26.0005 15.9211 25.7516C15.6088 26.5585 15.4255 27.4008 15.3766 28.2537C15.2706 29.5609 15.7171 30.8559 16.6276 31.8818C16.7661 31.9887 16.927 32.0698 17.1008 32.1205C17.2746 32.1713 17.4579 32.1906 17.6401 32.1774C18.5401 32.1774 18.9526 31.5056 19.4041 30.7074C19.9561 29.7318 20.4541 28.5977 20.4541 28.5977C20.4541 28.5977 19.8331 31.6628 21.5206 31.6628C22.1341 31.6628 22.7551 30.9479 23.0326 30.5878V30.5945L23.0791 30.526L23.1781 30.3822V30.3688C23.4241 29.9844 23.9761 29.111 24.7966 27.6611C25.8556 25.7919 26.8756 23.4552 26.8756 23.4552C26.974 23.9687 27.1098 24.4759 27.2821 24.9736C27.5292 25.5769 27.8213 26.1645 28.1566 26.7326C27.9106 27.0416 27.7576 27.2136 27.7576 27.2136L27.7651 27.2204C27.5656 27.4542 27.3511 27.7081 27.1126 27.9554C26.403 28.6543 25.7446 29.3935 25.1416 30.1685C25.052 30.2987 25.0212 30.4546 25.0555 30.6044C25.0898 30.7542 25.1866 30.8867 25.3261 30.9748C25.6419 31.122 26.0018 31.1752 26.3536 31.1266C26.8838 31.0998 27.4051 30.9931 27.8956 30.8109C28.3696 30.6614 28.8168 30.4509 29.2231 30.186C29.642 29.9261 29.9791 29.5739 30.2021 29.1635C30.4252 28.7531 30.5266 28.2982 30.4966 27.8425C30.4494 27.2685 30.2858 26.707 30.0136 26.1857C30.0901 26.0889 30.1636 25.9935 30.2356 25.8968C31.0884 24.7564 31.857 23.5674 32.5366 22.3372C32.635 22.8507 32.7708 23.3579 32.9431 23.8556C33.1469 24.3769 33.3977 24.8825 33.6931 25.3673C32.712 26.0435 31.9393 26.9323 31.4476 27.95C30.9646 29.201 31.3396 29.7641 32.0476 29.8944C32.435 29.9183 32.8224 29.8473 33.1681 29.6888C33.6764 29.5392 34.1553 29.3188 34.5871 29.0358C35.0424 28.795 35.4238 28.4567 35.6969 28.0511C35.97 27.6455 36.1263 27.1855 36.1516 26.7124C36.1176 26.2402 35.9985 25.776 35.7991 25.3378C37.0938 24.8847 38.4975 24.7402 39.8731 24.9185C43.5241 25.3028 44.2456 27.344 44.1076 28.204C44.0429 28.5089 43.9061 28.7978 43.7063 29.0514C43.5066 29.3049 43.2486 29.5172 42.9496 29.674C42.6961 29.8178 42.6121 29.8662 42.6346 29.9697C42.6646 30.1215 42.7846 30.1134 43.0021 30.0866C43.5524 29.9334 44.0379 29.6343 44.3946 29.2289C44.7513 28.8235 44.9624 28.3307 45.0001 27.8156C45.1156 25.8 42.9676 23.5895 39.1696 23.6097L39.1651 23.6124ZM10.9951 32.1156C9.7831 33.2981 8.0956 33.7443 7.3666 33.3667C6.5836 32.9635 6.8911 31.2167 8.3791 29.9643C9.26178 29.2525 10.2158 28.6151 11.2291 28.0602C11.4061 27.9634 11.6671 27.8264 11.9791 27.6571L12.0631 27.6154L12.2476 27.5119C12.5134 28.3099 12.5375 29.1568 12.3174 29.9658C12.0973 30.7748 11.641 31.5168 10.9951 32.1156V32.1156ZM19.8166 26.7406C19.3951 27.6611 18.5131 30.0194 17.9761 29.8877C17.5156 29.7775 17.2261 27.9903 17.8846 26.2246C18.2171 25.3746 18.7014 24.5786 19.3186 23.8677C19.9786 23.2079 20.7076 22.9875 20.8831 23.2563C20.723 24.4588 20.3635 25.6332 19.8166 26.7406V26.7406ZM27.0961 29.8608C26.9191 29.9428 26.7511 29.9952 26.6746 29.9576C26.6206 29.9307 26.7511 29.8232 26.7511 29.8232C26.7511 29.8232 27.6646 28.943 28.0246 28.5453C28.2316 28.3115 28.4746 28.0374 28.7386 27.7269V27.8156C28.7386 28.8664 27.6031 29.5746 27.0976 29.8635L27.0961 29.8608ZM32.7121 28.7133C32.5816 28.6313 32.6041 28.3558 33.0421 27.4972C33.3467 26.9457 33.7721 26.4549 34.2931 26.054C34.373 26.2574 34.4145 26.4713 34.4161 26.6869C34.422 27.1458 34.2582 27.5936 33.9502 27.9604C33.6423 28.3272 33.2075 28.5924 32.7136 28.7146L32.7121 28.7133Z" fill="#CD6799"/>
</svg>
