<svg width="38" height="36" viewBox="0 0 38 36" fill="none" xmlns="http://www.w3.org/2000/svg">
<g clip-path="url(#clip0)">
<path d="M19.1649 -9.51142e-05C11.6864 -0.0123711 4.64739 4.16914 1.41697 10.788L10.5003 10.8084V11.7451C7.70334 11.4277 7.94963 12.7973 8.34557 14.251L14.3084 28.3424L18.6911 18.6551L16.6791 14.1152C15.9483 12.8992 15.9329 11.5502 12.943 11.6772L12.985 10.814L26.3071 10.8446V11.8119C24.7469 11.8982 22.8689 11.442 23.8644 14.4546L29.2525 27.8005L32.1979 20.0093C33.1624 16.7432 32.2547 13.6045 31.1086 10.5267C30.4711 8.46189 30.7684 6.73753 33.6257 6.05349C29.2644 1.85571 24.1183 0.00804089 19.165 -9.51142e-05H19.1649ZM37.2836 12.3209L28.6465 33.5497C31.0318 31.6018 33.4774 30.8927 36.4701 25.5028C38.4613 21.0196 38.2563 16.8665 37.2836 12.3209V12.3209ZM0.502753 12.6648C-0.340263 18.9319 -0.263143 20.7675 1.82368 25.8852C4.54389 30.7868 6.65332 31.8195 9.64726 33.7421L0.502714 12.6648H0.502753ZM19.502 20.6167L13.1014 35.1788C17.5942 36.388 21.6143 36.2367 25.2945 34.8915L19.502 20.6167V20.6167Z" fill="#1B4965"/>
</g>
<defs>
<clipPath id="clip0">
<rect width="38" height="36" fill="white"/>
</clipPath>
</defs>
</svg>
